<svg width="0" height="0" fill="none" style="visibility: hidden; position: absolute;" aria-hidden="true">
    <symbol id="actions-fx" width="35" height="35" viewBox="0 0 35 35" fill="none" xmlns="http://www.w3.org/2000/svg">
        <rect width="35" height="35" rx="3" fill="#C10505"/>
    </symbol>
    <symbol id="add" width="20" height="20" viewBox="0 0 20 20" fill="currentColor" xmlns="http://www.w3.org/2000/svg">
        <path d="M9 9V5H11V9H15V11H11V15H9V11H5V9H9ZM10 20C4.477 20 0 15.523 0 10C0 4.477 4.477 0 10 0C15.523 0 20 4.477 20 10C20 15.523 15.523 20 10 20ZM10 18C12.1217 18 14.1566 17.1571 15.6569 15.6569C17.1571 14.1566 18 12.1217 18 10C18 7.87827 17.1571 5.84344 15.6569 4.34315C14.1566 2.84285 12.1217 2 10 2C7.87827 2 5.84344 2.84285 4.34315 4.34315C2.84285 5.84344 2 7.87827 2 10C2 12.1217 2.84285 14.1566 4.34315 15.6569C5.84344 17.1571 7.87827 18 10 18Z"/>
    </symbol>
    <symbol id="admin" width="18" height="21" viewBox="0 0 18 21" fill="currentColor" xmlns="http://www.w3.org/2000/svg">
        <path d="M8.00008 12.8334V14.6667C6.54139 14.6667 5.14244 15.2462 4.11099 16.2777C3.07954 17.3091 2.50008 18.7081 2.50008 20.1667H0.666748C0.666748 18.2218 1.43937 16.3566 2.81463 14.9813C4.1899 13.606 6.05516 12.8334 8.00008 12.8334ZM8.00008 11.9167C4.96133 11.9167 2.50008 9.4555 2.50008 6.41675C2.50008 3.378 4.96133 0.916748 8.00008 0.916748C11.0388 0.916748 13.5001 3.378 13.5001 6.41675C13.5001 9.4555 11.0388 11.9167 8.00008 11.9167ZM8.00008 10.0834C10.0259 10.0834 11.6667 8.44258 11.6667 6.41675C11.6667 4.39091 10.0259 2.75008 8.00008 2.75008C5.97425 2.75008 4.33342 4.39091 4.33342 6.41675C4.33342 8.44258 5.97425 10.0834 8.00008 10.0834ZM16.2501 15.5834H17.1667V20.1667H9.83342V15.5834H10.7501V14.6667C10.7501 13.9374 11.0398 13.2379 11.5555 12.7222C12.0713 12.2065 12.7707 11.9167 13.5001 11.9167C14.2294 11.9167 14.9289 12.2065 15.4446 12.7222C15.9604 13.2379 16.2501 13.9374 16.2501 14.6667V15.5834ZM14.4167 15.5834V14.6667C14.4167 14.4236 14.3202 14.1905 14.1483 14.0186C13.9764 13.8467 13.7432 13.7501 13.5001 13.7501C13.257 13.7501 13.0238 13.8467 12.8519 14.0186C12.68 14.1905 12.5834 14.4236 12.5834 14.6667V15.5834H14.4167Z"/>
    </symbol>
    <symbol id="alert-danger" width="20" height="20" viewBox="0 0 20 20" fill="none" xmlns="http://www.w3.org/2000/svg">
        <path d="M10 20C4.477 20 0 15.523 0 10C0 4.477 4.477 0 10 0C15.523 0 20 4.477 20 10C20 15.523 15.523 20 10 20ZM9 13V15H11V13H9ZM9 5V11H11V5H9Z" fill="#C10505"/>
    </symbol>
    <symbol id="alert-success" width="20" height="20" viewBox="0 0 20 20" fill="none" xmlns="http://www.w3.org/2000/svg">
        <path d="M10 20C4.477 20 0 15.523 0 10C0 4.477 4.477 0 10 0C15.523 0 20 4.477 20 10C20 15.523 15.523 20 10 20ZM9.003 14L16.073 6.929L14.659 5.515L9.003 11.172L6.174 8.343L4.76 9.757L9.003 14Z" fill="#0F9D58"/>
    </symbol>
    <symbol id="alert-warning" width="22" height="19" viewBox="0 0 22 19" xmlns="http://www.w3.org/2000/svg">
        <path d="M11.8656 1L21.3916 17.5C21.4794 17.652 21.5256 17.8245 21.5256 18C21.5256 18.1755 21.4794 18.348 21.3916 18.5C21.3038 18.652 21.1776 18.7782 21.0256 18.866C20.8736 18.9538 20.7011 19 20.5256 19H1.47361C1.29807 19 1.12563 18.9538 0.973616 18.866C0.821601 18.7782 0.695366 18.652 0.607601 18.5C0.519836 18.348 0.473632 18.1755 0.473633 18C0.473634 17.8245 0.51984 17.652 0.607607 17.5L10.1336 1C10.2214 0.847994 10.3476 0.721768 10.4996 0.634007C10.6516 0.546247 10.8241 0.500046 10.9996 0.500046C11.1751 0.500046 11.3476 0.546247 11.4996 0.634007C11.6516 0.721768 11.7778 0.847994 11.8656 1ZM9.99961 14V16H11.9996V14H9.99961ZM9.99961 7V12H11.9996V7H9.99961Z" fill="#FFAB00"/>
    </symbol>
    <symbol id="archived" fill="currentColor" width="20" height="19" viewBox="0 0 20 19" xmlns="http://www.w3.org/2000/svg">
        <path d="M1 7.3614H0V1.35514C0 0.800281 0.455 0.350588 0.992 0.350588H19.008C19.1393 0.350311 19.2693 0.376187 19.3905 0.426709C19.5117 0.477232 19.6217 0.551392 19.714 0.644875C19.8063 0.738357 19.8791 0.849294 19.9282 0.971231C19.9773 1.09317 20.0017 1.22367 20 1.35514V7.3614H19V17.3778C19.0004 17.5088 18.975 17.6386 18.9253 17.7598C18.8756 17.881 18.8026 17.9912 18.7104 18.0841C18.6182 18.177 18.5086 18.2508 18.3879 18.3013C18.2672 18.3518 18.1378 18.378 18.007 18.3784H1.993C1.8622 18.378 1.73277 18.3518 1.61208 18.3013C1.49139 18.2508 1.38181 18.177 1.2896 18.0841C1.19739 17.9912 1.12436 17.881 1.07467 17.7598C1.02498 17.6386 0.999606 17.5088 1 17.3778V7.3614ZM17 7.3614H3V16.3753H17V7.3614ZM2 2.35368V5.35831H18V2.35368H2ZM7 9.36449H13V11.3676H7V9.36449Z"/>
    </symbol>
    <symbol id="arrow-down" viewBox="0 0 12 8" xmlns="http://www.w3.org/2000/svg">
        <path d="M6 5.00564L10.125 0.890869L11.3033 2.06628L6 7.35647L0.696655 2.06628L1.87499 0.890869L6 5.00564Z" fill="currentColor"/>
    </symbol>
    <symbol id="arrow_down-select" width="9" height="6" viewBox="0 0 9 6" xmlns="http://www.w3.org/2000/svg">
        <path d="M4.5 5.02262L0 0.484375H9L4.5 5.02262Z"/>
    </symbol>
    <symbol id="article" width="16" height="16" viewBox="0 0 16 16" fill="currentColor" xmlns="http://www.w3.org/2000/svg">
        <path d="M15 11.25V0.75C15 0.334375 14.6656 0 14.25 0H4C2.34375 0 1 1.34375 1 3V13C1 14.6562 2.34375 16 4 16H14.25C14.6656 16 15 15.6656 15 15.25V14.75C15 14.5156 14.8906 14.3031 14.7219 14.1656C14.5906 13.6844 14.5906 12.3125 14.7219 11.8313C14.8906 11.6969 15 11.4844 15 11.25ZM5 4.1875C5 4.08437 5.08437 4 5.1875 4H11.8125C11.9156 4 12 4.08437 12 4.1875V4.8125C12 4.91563 11.9156 5 11.8125 5H5.1875C5.08437 5 5 4.91563 5 4.8125V4.1875ZM5 6.1875C5 6.08437 5.08437 6 5.1875 6H11.8125C11.9156 6 12 6.08437 12 6.1875V6.8125C12 6.91563 11.9156 7 11.8125 7H5.1875C5.08437 7 5 6.91563 5 6.8125V6.1875ZM12.9187 14H4C3.44688 14 3 13.5531 3 13C3 12.45 3.45 12 4 12H12.9187C12.8594 12.5344 12.8594 13.4656 12.9187 14Z"/>
    </symbol>
    <symbol id="bell" width="20" height="21" viewBox="0 0 20 21" fill="currentColor" xmlns="http://www.w3.org/2000/svg">
        <path d="M18 15H20V17H0V15H2V8C2 5.87827 2.84285 3.84344 4.34315 2.34315C5.84344 0.842855 7.87827 0 10 0C12.1217 0 14.1566 0.842855 15.6569 2.34315C17.1571 3.84344 18 5.87827 18 8V15ZM16 15V8C16 6.4087 15.3679 4.88258 14.2426 3.75736C13.1174 2.63214 11.5913 2 10 2C8.4087 2 6.88258 2.63214 5.75736 3.75736C4.63214 4.88258 4 6.4087 4 8V15H16ZM7 19H13V21H7V19Z"/>
    </symbol>
    <symbol id="brush" viewBox="0 0 14 14" fill="currentColor" xmlns="http://www.w3.org/2000/svg">
        <path d="M12.7225 2.2983C11.9583 4.2058 10.2142 6.69664 8.55168 8.32414C8.31251 6.81914 7.11084 5.6408 5.59418 5.4308C7.22751 3.76247 9.73584 1.99497 11.6492 1.22497C11.9875 1.09664 12.3258 1.1958 12.5358 1.4058C12.7575 1.62747 12.8625 1.95997 12.7225 2.2983Z"/>
        <path d="M8.03834 8.80248C7.92167 8.90164 7.80501 9.00081 7.68834 9.09414L6.64417 9.92831C6.64417 9.91081 6.63834 9.88748 6.63834 9.86414C6.55667 9.23998 6.26501 8.66248 5.79251 8.18998C5.31417 7.71164 4.71917 7.41998 4.06584 7.33831C4.04834 7.33831 4.02501 7.33248 4.00751 7.33248L4.85334 6.26498C4.93501 6.15998 5.02251 6.06081 5.11584 5.95581L5.51251 6.00831C6.76667 6.18331 7.77584 7.16914 7.97417 8.41748L8.03834 8.80248Z"/>
        <path d="M6.08417 10.2783C6.08417 10.92 5.83917 11.5325 5.37251 11.9933C5.01667 12.355 4.53834 12.6 3.95501 12.67L2.52584 12.8275C1.74417 12.915 1.07334 12.2441 1.16084 11.4566L1.31834 10.0216C1.45834 8.74414 2.52584 7.92748 3.65751 7.90414C3.76834 7.89831 3.89084 7.90414 4.00751 7.91581C4.50334 7.97998 4.98167 8.20748 5.38417 8.60414C5.775 8.99498 5.99667 9.45581 6.06084 9.93998C6.0725 10.0566 6.08417 10.1675 6.08417 10.2783Z"/>
    </symbol>
    <symbol id="cancel" width="8" height="8" viewBox="0 0 8 8" xmlns="http://www.w3.org/2000/svg">
        <path d="M4 3.11125L7.11125 0L8 0.888749L4.88875 4L8 7.11125L7.11125 8L4 4.88875L0.888749 8L0 7.11125L3.11125 4L0 0.888749L0.888749 0L4 3.11125Z"/>
    </symbol>
    <symbol id="change-pass" width="16" height="21" viewBox="0 0 16 21" fill="none" xmlns="http://www.w3.org/2000/svg">
        <path d="M16 21H14V19C14 18.2044 13.6839 17.4413 13.1213 16.8787C12.5587 16.3161 11.7956 16 11 16H5C4.20435 16 3.44129 16.3161 2.87868 16.8787C2.31607 17.4413 2 18.2044 2 19V21H0V19C0 17.6739 0.526784 16.4021 1.46447 15.4645C2.40215 14.5268 3.67392 14 5 14H11C12.3261 14 13.5979 14.5268 14.5355 15.4645C15.4732 16.4021 16 17.6739 16 19V21ZM8 12C7.21207 12 6.43185 11.8448 5.7039 11.5433C4.97595 11.2417 4.31451 10.7998 3.75736 10.2426C3.20021 9.68549 2.75825 9.02405 2.45672 8.2961C2.15519 7.56815 2 6.78793 2 6C2 5.21207 2.15519 4.43185 2.45672 3.7039C2.75825 2.97595 3.20021 2.31451 3.75736 1.75736C4.31451 1.20021 4.97595 0.758251 5.7039 0.456723C6.43185 0.155195 7.21207 -1.17411e-08 8 0C9.5913 2.37122e-08 11.1174 0.632141 12.2426 1.75736C13.3679 2.88258 14 4.4087 14 6C14 7.5913 13.3679 9.11742 12.2426 10.2426C11.1174 11.3679 9.5913 12 8 12ZM8 10C9.06087 10 10.0783 9.57857 10.8284 8.82843C11.5786 8.07828 12 7.06087 12 6C12 4.93913 11.5786 3.92172 10.8284 3.17157C10.0783 2.42143 9.06087 2 8 2C6.93913 2 5.92172 2.42143 5.17157 3.17157C4.42143 3.92172 4 4.93913 4 6C4 7.06087 4.42143 8.07828 5.17157 8.82843C5.92172 9.57857 6.93913 10 8 10Z" fill="#2D3436"/>
    </symbol>
    <symbol id="checkmark" viewBox="0 0 20 20" fill="currentColor" xmlns="http://www.w3.org/2000/svg">
        <path d="M8.33361 12.6433L15.9936 4.98242L17.1728 6.16076L8.33361 14.9999L3.03027 9.69659L4.20861 8.51826L8.33361 12.6433Z" fill="currentColor"/>
    </symbol>
    <symbol id="close-old" width="17" height="17" viewBox="0 0 17 17" fill="white" xmlns="http://www.w3.org/2000/svg">
        <defs>
            <ref id="paramFill__close-old" param="color" default="blue"/>
            <ref id="paramStroke__close-old" param="outline" default="navy"/>
        </defs>
        <rect x="0.5" y="0.5" width="16" height="16" rx="3.5" stroke="currentColor"/>
        <path class='path' d="M8.5 7.5557L11.8057 4.25L12.75 5.1943L9.4443 8.5L12.75 11.8057L11.8057 12.75L8.5 9.4443L5.1943 12.75L4.25 11.8057L7.5557 8.5L4.25 5.1943L5.1943 4.25L8.5 7.5557Z" fill='currentColor' />
    </symbol>
    <symbol id="close" width="10" height="10" viewBox="0 0 10 10" fill="none" xmlns="http://www.w3.org/2000/svg">
        <path d="M4.99972 4.01041L8.46472 0.54541L9.45452 1.53521L5.98952 5.00021L9.45452 8.46521L8.46472 9.45501L4.99972 5.99001L1.53472 9.45501L0.544922 8.46521L4.00992 5.00021L0.544922 1.53521L1.53472 0.54541L4.99972 4.01041Z" fill="currentColor"/>
    </symbol>
    <symbol id="company-details" width="22" height="18" viewBox="0 0 22 18" xmlns="http://www.w3.org/2000/svg">
        <path d="M20 16H22V18H0V16H2V1C2 0.734784 2.10536 0.48043 2.29289 0.292893C2.48043 0.105357 2.73478 0 3 0H13C13.2652 0 13.5196 0.105357 13.7071 0.292893C13.8946 0.48043 14 0.734784 14 1V16H18V8H16V6H19C19.2652 6 19.5196 6.10536 19.7071 6.29289C19.8946 6.48043 20 6.73478 20 7V16ZM4 2V16H12V2H4ZM6 8H10V10H6V8ZM6 4H10V6H6V4Z" fill="currentColor"/>
    </symbol>
    <symbol id="companydetails" width="22" height="18" viewBox="0 0 22 18" fill="none" xmlns="http://www.w3.org/2000/svg">
        <path d="M20 16H22V18H0V16H2V1C2 0.734784 2.10536 0.48043 2.29289 0.292893C2.48043 0.105357 2.73478 0 3 0H13C13.2652 0 13.5196 0.105357 13.7071 0.292893C13.8946 0.48043 14 0.734784 14 1V16H18V8H16V6H19C19.2652 6 19.5196 6.10536 19.7071 6.29289C19.8946 6.48043 20 6.73478 20 7V16ZM4 2V16H12V2H4ZM6 8H10V10H6V8ZM6 4H10V6H6V4Z" fill="#2D3436"/>
    </symbol>
    <symbol id="connections" width="20" height="20" viewBox="0 0 20 20" xmlns="http://www.w3.org/2000/svg">
        <path d="M10.9717 6.43422L12.2687 7.7313C12.8647 8.32715 13.3374 9.03455 13.6599 9.8131C13.9824 10.5916 14.1484 11.4261 14.1484 12.2688C14.1484 13.1115 13.9824 13.946 13.6599 14.7245C13.3374 15.5031 12.8647 16.2104 12.2687 16.8063L11.9442 17.1299C10.7408 18.3333 9.10863 19.0094 7.40674 19.0094C5.70485 19.0094 4.07266 18.3333 2.86924 17.1299C1.66582 15.9265 0.989746 14.2943 0.989746 12.5924C0.989746 10.8905 1.66582 9.2583 2.86924 8.05488L4.16632 9.35197C3.73766 9.77689 3.39715 10.2823 3.16434 10.8392C2.93153 11.396 2.811 11.9934 2.80968 12.597C2.80836 13.2006 2.92627 13.7985 3.15664 14.3564C3.38701 14.9143 3.7253 15.4211 4.1521 15.8479C4.5789 16.2747 5.08579 16.613 5.64368 16.8434C6.20157 17.0738 6.79946 17.1917 7.40304 17.1904C8.00662 17.189 8.604 17.0685 9.16087 16.8357C9.71774 16.6029 10.2232 16.2624 10.6481 15.8337L10.9726 15.5092C11.8318 14.6497 12.3145 13.4841 12.3145 12.2688C12.3145 11.0535 11.8318 9.88788 10.9726 9.02838L9.67549 7.7313L10.9726 6.43513L10.9717 6.43422ZM17.1298 11.9443L15.8337 10.6481C16.2623 10.2232 16.6028 9.7178 16.8356 9.16093C17.0685 8.60405 17.189 8.00668 17.1903 7.4031C17.1916 6.79952 17.0737 6.20162 16.8433 5.64374C16.613 5.08585 16.2747 4.57895 15.8479 4.15216C15.4211 3.72536 14.9142 3.38707 14.3563 3.1567C13.7984 2.92633 13.2005 2.80842 12.5969 2.80974C11.9934 2.81106 11.396 2.93159 10.8391 3.1644C10.2822 3.39721 9.77683 3.73772 9.35191 4.16638L9.02741 4.49088C8.16816 5.35038 7.68547 6.51596 7.68547 7.7313C7.68547 8.94663 8.16816 10.1122 9.02741 10.9717L10.3245 12.2688L9.02741 13.565L7.73124 12.2688C7.13533 11.6729 6.66262 10.9656 6.34011 10.187C6.0176 9.40845 5.85161 8.574 5.85161 7.7313C5.85161 6.8886 6.0176 6.05414 6.34011 5.2756C6.66262 4.49705 7.13533 3.78965 7.73124 3.1938L8.05574 2.87022C9.25916 1.6668 10.8913 0.990723 12.5932 0.990723C14.2951 0.990723 15.9273 1.6668 17.1307 2.87022C18.3342 4.07364 19.0102 5.70582 19.0102 7.40772C19.0102 9.10961 18.3342 10.7418 17.1307 11.9452L17.1298 11.9443Z"/>
    </symbol>
    <symbol id="cross_dark" width="28" height="28" viewBox="0 0 28 28" fill="none" xmlns="http://www.w3.org/2000/svg">
        <circle cx="14" cy="14" r="14" fill="#2D3436"/>
        <path d="M14.0017 13.0102L17.4667 9.54517L18.4565 10.535L14.9915 14L18.4565 17.465L17.4667 18.4548L14.0017 14.9898L10.5367 18.4548L9.54688 17.465L13.0119 14L9.54688 10.535L10.5367 9.54517L14.0017 13.0102Z" fill="#939191"/>
    </symbol>
    <symbol id="cross_light" width="28" height="28" viewBox="0 0 28 28" fill="none" xmlns="http://www.w3.org/2000/svg">
        <circle cx="14" cy="14" r="14" fill="#2D3436" fill-opacity="0.1"/>
        <g clip-path="url(#clip0_710_5135__cross_light)">
            <path d="M13.9997 13.0104L17.4647 9.54541L18.4545 10.5352L14.9895 14.0002L18.4545 17.4652L17.4647 18.455L13.9997 14.99L10.5347 18.455L9.54492 17.4652L13.0099 14.0002L9.54492 10.5352L10.5347 9.54541L13.9997 13.0104Z" fill="#2D3436"/>
        </g>
        <defs>
            <clipPath id="clip0_710_5135__cross_light">
                <rect width="16.8" height="16.8" fill="white" transform="translate(5.59961 5.6001)"/>
            </clipPath>
        </defs>
    </symbol>
    <symbol id="dashboard" width="20" height="20" viewBox="0 0 20 20" xmlns="http://www.w3.org/2000/svg">
        <path d="M9.99992 0.833252C15.0627 0.833252 19.1666 4.93717 19.1666 9.99992C19.1666 15.0627 15.0627 19.1666 9.99992 19.1666C4.93717 19.1666 0.833252 15.0627 0.833252 9.99992C0.833252 4.93717 4.93717 0.833252 9.99992 0.833252ZM9.99992 2.66659C5.95008 2.66659 2.66659 5.95008 2.66659 9.99992C2.66659 14.0498 5.95008 17.3333 9.99992 17.3333C14.0498 17.3333 17.3333 14.0498 17.3333 9.99992C17.3333 5.95008 14.0498 2.66659 9.99992 2.66659ZM9.99992 3.58325C10.9331 3.58325 11.8195 3.78217 12.6198 4.14058L11.187 5.57242C10.8084 5.47159 10.4106 5.41658 9.99992 5.41658C7.469 5.41658 5.41658 7.469 5.41658 9.99992C5.41658 11.2649 5.92992 12.4108 6.75858 13.2413L5.46242 14.5374L5.31942 14.3898C4.24325 13.2422 3.58325 11.6976 3.58325 9.99992C3.58325 6.45609 6.45609 3.58325 9.99992 3.58325ZM15.8593 7.381C16.2168 8.18033 16.4166 9.06767 16.4166 9.99992C16.4166 11.7718 15.6979 13.376 14.5374 14.5374L13.2413 13.2413C14.0699 12.4108 14.5833 11.2649 14.5833 9.99992C14.5833 9.58925 14.5292 9.19142 14.4274 8.81283L15.8593 7.381ZM13.8884 4.81434L15.1855 6.1105L11.7718 9.526C11.8122 9.67725 11.8333 9.83583 11.8333 9.99992C11.8333 11.0128 11.0128 11.8333 9.99992 11.8333C8.987 11.8333 8.16658 11.0128 8.16658 9.99992C8.16658 8.987 8.987 8.16658 9.99992 8.16658C10.164 8.16658 10.3226 8.18767 10.4738 8.228L13.8893 4.81434H13.8884Z"/>
    </symbol>
    <symbol id="Delete" width="16" height="16" viewBox="0 0 16 16" fill="none" xmlns="http://www.w3.org/2000/svg">
        <path d="M2 4H3.33333H14" stroke="#FF6868" stroke-linecap="round" stroke-linejoin="round"/>
        <path d="M5.33398 4.00001V2.66668C5.33398 2.31305 5.47446 1.97392 5.72451 1.72387C5.97456 1.47382 6.3137 1.33334 6.66732 1.33334H9.33398C9.68761 1.33334 10.0267 1.47382 10.2768 1.72387C10.5268 1.97392 10.6673 2.31305 10.6673 2.66668V4.00001M12.6673 4.00001V13.3333C12.6673 13.687 12.5268 14.0261 12.2768 14.2762C12.0267 14.5262 11.6876 14.6667 11.334 14.6667H4.66732C4.3137 14.6667 3.97456 14.5262 3.72451 14.2762C3.47446 14.0261 3.33398 13.687 3.33398 13.3333V4.00001H12.6673Z" stroke="#FF6868" stroke-linecap="round" stroke-linejoin="round"/>
        <path d="M6.66602 7.33334V11.3333" stroke="#FF6868" stroke-linecap="round" stroke-linejoin="round"/>
        <path d="M9.33398 7.33334V11.3333" stroke="#FF6868" stroke-linecap="round" stroke-linejoin="round"/>
    </symbol>
    <symbol id="double-tick" width="18" height="11" viewBox="0 0 18 11" fill="none" xmlns="http://www.w3.org/2000/svg">
        <path d="M13.5001 1.24988L12.4426 0.192383L7.68762 4.94738L8.74512 6.00488L13.5001 1.24988ZM16.6801 0.192383L8.74512 8.12738L5.61012 4.99988L4.55262 6.05738L8.74512 10.2499L17.7451 1.24988L16.6801 0.192383ZM0.307617 6.05738L4.50012 10.2499L5.55762 9.19238L1.37262 4.99988L0.307617 6.05738Z" fill="#0F9D58"/>
    </symbol>
    <symbol id="dropdown-menu" width="369" height="334" viewBox="0 0 369 334" fill="none" xmlns="http://www.w3.org/2000/svg">
        <g filter="url(#filter0_d_42_1470__dropdown-menu)">
            <path d="M124 132C124 128.686 126.686 126 130 126H214.774C216.392 126 217.818 124.939 218.283 123.389L218.336 123.212C219.383 119.725 224.347 119.801 225.285 123.319C225.707 124.9 227.138 126 228.775 126H239C242.314 126 245 128.686 245 132V200C245 203.314 242.314 206 239 206H130C126.686 206 124 203.314 124 200V132Z" fill="white"/>
        </g>
        <defs>
            <filter id="filter0_d_42_1470__dropdown-menu" x="0" y="0.638184" width="369" height="333.362" filterUnits="userSpaceOnUse" color-interpolation-filters="sRGB">
                <feFlood flood-opacity="0" result="BackgroundImageFix"/>
                <feColorMatrix in="SourceAlpha" type="matrix" values="0 0 0 0 0 0 0 0 0 0 0 0 0 0 0 0 0 0 127 0" result="hardAlpha"/>
                <feOffset dy="4"/>
                <feGaussianBlur stdDeviation="62"/>
                <feComposite in2="hardAlpha" operator="out"/>
                <feColorMatrix type="matrix" values="0 0 0 0 0.172549 0 0 0 0 0.152941 0 0 0 0 0.156863 0 0 0 0.2 0"/>
                <feBlend mode="normal" in2="BackgroundImageFix" result="effect1_dropShadow_42_1470"/>
                <feBlend mode="normal" in="SourceGraphic" in2="effect1_dropShadow_42_1470" result="shape"/>
            </filter>
        </defs>
    </symbol>
    <symbol id="error" width="20" height="20" viewBox="0 0 20 20" fill="none" xmlns="http://www.w3.org/2000/svg">
        <path d="M10 20C4.477 20 0 15.523 0 10C0 4.477 4.477 0 10 0C15.523 0 20 4.477 20 10C20 15.523 15.523 20 10 20ZM9 13V15H11V13H9ZM9 5V11H11V5H9Z" fill="#C10505"/>
    </symbol>
    <symbol id="exclamation" width="20" height="21" viewBox="0 0 20 21" fill="none" xmlns="http://www.w3.org/2000/svg">
        <path d="M10 20.7528C4.477 20.7528 0 16.2758 0 10.7528C0 5.22981 4.477 0.752808 10 0.752808C15.523 0.752808 20 5.22981 20 10.7528C20 16.2758 15.523 20.7528 10 20.7528ZM9 13.7528V15.7528H11V13.7528H9ZM9 5.75281V11.7528H11V5.75281H9Z" fill="#C10505"/>
    </symbol>
    <symbol id="external-link" xmlns="http://www.w3.org/2000/svg" x="0px" y="0px" viewBox="0 0 26 26" fill="currentColor" xml:space="preserve">
        <g>
            <path d="M18,17.759v3.366C18,22.159,17.159,23,16.125,23H4.875C3.841,23,3,22.159,3,21.125V9.875 &#xA;&#x9;&#x9;C3,8.841,3.841,8,4.875,8h3.429l3.001-3h-6.43C2.182,5,0,7.182,0,9.875v11.25C0,23.818,2.182,26,4.875,26h11.25 &#xA;&#x9;&#x9;C18.818,26,21,23.818,21,21.125v-6.367L18,17.759z"/>
            <g>
                <path d="M22.581,0H12.322c-1.886,0.002-1.755,0.51-0.76,1.504l3.22,3.22l-5.52,5.519 &#xA;&#x9;&#x9;&#x9;c-1.145,1.144-1.144,2.998,0,4.141l2.41,2.411c1.144,1.141,2.996,1.142,4.14-0.001l5.52-5.52l3.16,3.16 &#xA;&#x9;&#x9;&#x9;c1.101,1.1,1.507,1.129,1.507-0.757L26,3.419C25.999-0.018,26.024-0.001,22.581,0z"/>
            </g>
        </g>
        <g> </g>
        <g> </g>
        <g> </g>
        <g> </g>
        <g> </g>
        <g> </g>
        <g> </g>
        <g> </g>
        <g> </g>
        <g> </g>
        <g> </g>
        <g> </g>
        <g> </g>
        <g> </g>
        <g> </g>
    </symbol>
    <symbol id="eye" width="14" height="14" viewBox="0 0 14 14" fill="currentColor" xmlns="http://www.w3.org/2000/svg">
        <path d="M12.3959 5.33752C11.0484 3.22002 9.07675 2.00085 7.00008 2.00085C5.96175 2.00085 4.95258 2.30419 4.03091 2.87002C3.10925 3.44169 2.28091 4.27585 1.60425 5.33752C1.02091 6.25335 1.02091 7.74085 1.60425 8.65669C2.95175 10.78 4.92341 11.9934 7.00008 11.9934C8.03841 11.9934 9.04758 11.69 9.96925 11.1242C10.8909 10.5525 11.7192 9.71835 12.3959 8.65669C12.9792 7.74669 12.9792 6.25335 12.3959 5.33752ZM7.00008 9.35669C5.69342 9.35669 4.64341 8.30085 4.64341 7.00002C4.64341 5.69919 5.69342 4.64335 7.00008 4.64335C8.30675 4.64335 9.35675 5.69919 9.35675 7.00002C9.35675 8.30085 8.30675 9.35669 7.00008 9.35669Z"/>
        <path d="M6.9999 5.33167C6.08407 5.33167 5.3374 6.07833 5.3374 7C5.3374 7.91583 6.08407 8.6625 6.9999 8.6625C7.91573 8.6625 8.66823 7.91583 8.66823 7C8.66823 6.08416 7.91573 5.33167 6.9999 5.33167Z"/>
    </symbol>
    <symbol id="failed" width="25" height="24" viewBox="0 0 25 24" xmlns="http://www.w3.org/2000/svg">
        <path d="M16.1915 2H7.81146C4.17146 2 2.00146 4.17 2.00146 7.81V16.18C2.00146 19.83 4.17146 22 7.81146 22H16.1815C19.8215 22 21.9915 19.83 21.9915 16.19V7.81C22.0015 4.17 19.8315 2 16.1915 2ZM19.0015 8.24C19.0015 8.79 18.5515 9.24 18.0015 9.24H16.0015C15.5915 9.24 15.2515 9.58 15.2515 9.99C15.2515 10.41 15.5915 10.74 16.0015 10.74H18.0015C18.5515 10.74 19.0015 11.19 19.0015 11.74V12.25C19.0015 12.8 18.5515 13.25 18.0015 13.25H16.0015C15.5915 13.25 15.2515 13.59 15.2515 14C15.2515 14.41 15.5915 14.75 16.0015 14.75H18.0015C18.5515 14.75 19.0015 15.2 19.0015 15.75V16C19.0015 17.66 17.6615 19 16.0015 19H8.00146C6.34146 19 5.00146 17.66 5.00146 16V15.5C5.00146 14.95 5.45146 14.5 6.00146 14.5H7.48146C8.95146 14.5 10.1215 13.24 9.97147 11.74C9.84146 10.44 8.65146 9.5 7.34146 9.5H6.00146C5.45146 9.5 5.00146 9.05 5.00146 8.5V8C5.00146 6.34 6.34146 5 8.00146 5H16.0015C17.6615 5 19.0015 6.34 19.0015 8V8.24ZM5.00146 12C5.00146 11.45 5.45146 11 6.00146 11H7.00146C7.55147 11 8.00146 11.45 8.00146 12C8.00146 12.55 7.55147 13 7.00146 13H6.00146C5.45146 13 5.00146 12.55 5.00146 12Z" fill="#292D32"/>
    </symbol>
    <symbol id="idea" width="16" height="16" viewBox="0 0 16 16" fill="currentColor" xmlns="http://www.w3.org/2000/svg">
        <g clip-path="url(#clip0_584_261__idea)">
            <path d="M5.50187 14.1984C5.50219 14.395 5.56031 14.5875 5.66937 14.7512L6.20344 15.5541C6.29467 15.6913 6.41841 15.8039 6.56366 15.8817C6.7089 15.9596 6.87114 16.0003 7.03594 16.0003H8.96438C9.12917 16.0003 9.29141 15.9596 9.43665 15.8817C9.5819 15.8039 9.70564 15.6913 9.79688 15.5541L10.3309 14.7512C10.44 14.5875 10.4982 14.3952 10.4984 14.1984L10.4997 13H5.50031L5.50187 14.1984ZM2.5 5.5C2.5 6.88656 3.01406 8.15156 3.86125 9.11812C4.3775 9.70718 5.185 10.9378 5.49281 11.9759C5.49406 11.9841 5.495 11.9922 5.49625 12.0003H10.5037C10.505 11.9922 10.5059 11.9844 10.5072 11.9759C10.815 10.9378 11.6225 9.70718 12.1388 9.11812C12.9859 8.15156 13.5 6.88656 13.5 5.5C13.5 2.45656 11.0284 -0.00937887 7.98281 -3.87451e-06C4.795 0.00968363 2.5 2.59281 2.5 5.5ZM8 3C6.62156 3 5.5 4.12156 5.5 5.5C5.5 5.77625 5.27625 6 5 6C4.72375 6 4.5 5.77625 4.5 5.5C4.5 3.57 6.07 2 8 2C8.27625 2 8.5 2.22375 8.5 2.5C8.5 2.77625 8.27625 3 8 3Z"/>
        </g>
        <defs>
            <clipPath id="clip0_584_261__idea">
                <rect width="16" height="16" fill="white"/>
            </clipPath>
        </defs>
    </symbol>
    <symbol id="in-progress" width="18" height="21" viewBox="0 0 18 21" xmlns="http://www.w3.org/2000/svg">
        <path d="M14 14.3707C15.657 14.3707 17 15.7158 17 17.3754C17 19.0349 15.657 20.38 14 20.38C12.343 20.38 11 19.0349 11 17.3754C11 15.7158 12.343 14.3707 14 14.3707ZM4 10.3646C6.21 10.3646 8 12.1573 8 14.3707C8 16.5842 6.21 18.3769 4 18.3769C1.79 18.3769 0 16.5842 0 14.3707C0 12.1573 1.79 10.3646 4 10.3646ZM14 16.3738C13.448 16.3738 13 16.8225 13 17.3754C13 17.9282 13.448 18.3769 14 18.3769C14.552 18.3769 15 17.9282 15 17.3754C15 16.8225 14.552 16.3738 14 16.3738ZM4 12.3677C2.895 12.3677 2 13.264 2 14.3707C2 15.4774 2.895 16.3738 4 16.3738C5.105 16.3738 6 15.4774 6 14.3707C6 13.264 5.105 12.3677 4 12.3677ZM12.5 0.349121C15.538 0.349121 18 2.81492 18 5.85761C18 8.90031 15.538 11.3661 12.5 11.3661C9.462 11.3661 7 8.90031 7 5.85761C7 2.81492 9.462 0.349121 12.5 0.349121ZM12.5 2.35221C10.567 2.35221 9 3.92163 9 5.85761C9 7.7936 10.567 9.36302 12.5 9.36302C14.433 9.36302 16 7.7936 16 5.85761C16 3.92163 14.433 2.35221 12.5 2.35221Z"/>
    </symbol>
    <symbol id="info" width="20" height="20" viewBox="0 0 20 20" xmlns="http://www.w3.org/2000/svg">
        <path d="M10 20C4.477 20 0 15.523 0 10C0 4.477 4.477 0 10 0C15.523 0 20 4.477 20 10C20 15.523 15.523 20 10 20ZM10 18C12.1217 18 14.1566 17.1571 15.6569 15.6569C17.1571 14.1566 18 12.1217 18 10C18 7.87827 17.1571 5.84344 15.6569 4.34315C14.1566 2.84285 12.1217 2 10 2C7.87827 2 5.84344 2.84285 4.34315 4.34315C2.84285 5.84344 2 7.87827 2 10C2 12.1217 2.84285 14.1566 4.34315 15.6569C5.84344 17.1571 7.87827 18 10 18ZM9 5H11V7H9V5ZM9 9H11V15H9V9Z"/>
    </symbol>
    <symbol id="links" xmlns="http://www.w3.org/2000/svg" x="0px" y="0px" width="457.03px" height="457.03px" viewBox="0 0 457.03 457.03" fill="currentColor" xml:space="preserve">
        <g>
            <path d="M421.512,207.074l-85.795,85.767c-47.352,47.38-124.169,47.38-171.529,0c-7.46-7.439-13.296-15.821-18.421-24.465 &#xA;&#x9;&#x9;l39.864-39.861c1.895-1.911,4.235-3.006,6.471-4.296c2.756,9.416,7.567,18.33,14.972,25.736c23.648,23.667,62.128,23.634,85.762,0 &#xA;&#x9;&#x9;l85.768-85.765c23.666-23.664,23.666-62.135,0-85.781c-23.635-23.646-62.105-23.646-85.768,0l-30.499,30.532 &#xA;&#x9;&#x9;c-24.75-9.637-51.415-12.228-77.373-8.424l64.991-64.989c47.38-47.371,124.177-47.371,171.557,0 &#xA;&#x9;&#x9;C468.869,82.897,468.869,159.706,421.512,207.074z M194.708,348.104l-30.521,30.532c-23.646,23.634-62.128,23.634-85.778,0 &#xA;&#x9;&#x9;c-23.648-23.667-23.648-62.138,0-85.795l85.778-85.767c23.665-23.662,62.121-23.662,85.767,0 &#xA;&#x9;&#x9;c7.388,7.39,12.204,16.302,14.986,25.706c2.249-1.307,4.56-2.369,6.454-4.266l39.861-39.845 &#xA;&#x9;&#x9;c-5.092-8.678-10.958-17.03-18.421-24.477c-47.348-47.371-124.172-47.371-171.543,0L35.526,249.96 &#xA;&#x9;&#x9;c-47.366,47.385-47.366,124.172,0,171.553c47.371,47.356,124.177,47.356,171.547,0l65.008-65.003 &#xA;&#x9;&#x9;C246.109,360.336,219.437,357.723,194.708,348.104z"/>
        </g>
        <g> </g>
        <g> </g>
        <g> </g>
        <g> </g>
        <g> </g>
        <g> </g>
        <g> </g>
        <g> </g>
        <g> </g>
        <g> </g>
        <g> </g>
        <g> </g>
        <g> </g>
        <g> </g>
        <g> </g>
    </symbol>
    <symbol id="manage" width="18" height="14" viewBox="0 0 18 14" xmlns="http://www.w3.org/2000/svg">
        <path d="M0.75 11.5833H17.25V13.4166H0.75V11.5833ZM0.75 6.08325H3.5V8.83325H0.75V6.08325ZM5.33333 6.08325H8.08333V8.83325H5.33333V6.08325ZM0.75 0.583252H3.5V3.33325H0.75V0.583252ZM9.91667 0.583252H12.6667V3.33325H9.91667V0.583252ZM14.5 0.583252H17.25V3.33325H14.5V0.583252ZM9.91667 6.08325H12.6667V8.83325H9.91667V6.08325ZM14.5 6.08325H17.25V8.83325H14.5V6.08325ZM5.33333 0.583252H8.08333V3.33325H5.33333V0.583252Z"/>
    </symbol>
    <symbol id="monitor" width="20" height="20" viewBox="0 0 20 20" fill="none" xmlns="http://www.w3.org/2000/svg">
        <path d="M9.99992 17.3333C11.9448 17.3333 13.8101 16.5606 15.1854 15.1854C16.5606 13.8101 17.3333 11.9448 17.3333 9.99992C17.3333 8.055 16.5606 6.18974 15.1854 4.81447C13.8101 3.4392 11.9448 2.66659 9.99992 2.66659C8.055 2.66659 6.18974 3.4392 4.81447 4.81447C3.4392 6.18974 2.66659 8.055 2.66659 9.99992C2.66659 11.9448 3.4392 13.8101 4.81447 15.1854C6.18974 16.5606 8.055 17.3333 9.99992 17.3333ZM9.99992 19.1666C4.93717 19.1666 0.833252 15.0627 0.833252 9.99992C0.833252 4.93717 4.93717 0.833252 9.99992 0.833252C15.0627 0.833252 19.1666 4.93717 19.1666 9.99992C19.1666 15.0627 15.0627 19.1666 9.99992 19.1666ZM9.99992 13.6666C10.9724 13.6666 11.905 13.2803 12.5926 12.5926C13.2803 11.905 13.6666 10.9724 13.6666 9.99992C13.6666 9.02746 13.2803 8.09483 12.5926 7.40719C11.905 6.71956 10.9724 6.33325 9.99992 6.33325C9.02746 6.33325 8.09483 6.71956 7.40719 7.40719C6.71956 8.09483 6.33325 9.02746 6.33325 9.99992C6.33325 10.9724 6.71956 11.905 7.40719 12.5926C8.09483 13.2803 9.02746 13.6666 9.99992 13.6666ZM9.99992 15.4999C8.54123 15.4999 7.14228 14.9205 6.11083 13.889C5.07938 12.8576 4.49992 11.4586 4.49992 9.99992C4.49992 8.54123 5.07938 7.14228 6.11083 6.11083C7.14228 5.07938 8.54123 4.49992 9.99992 4.49992C11.4586 4.49992 12.8576 5.07938 13.889 6.11083C14.9205 7.14228 15.4999 8.54123 15.4999 9.99992C15.4999 11.4586 14.9205 12.8576 13.889 13.889C12.8576 14.9205 11.4586 15.4999 9.99992 15.4999ZM9.99992 11.8333C9.51369 11.8333 9.04737 11.6401 8.70356 11.2963C8.35974 10.9525 8.16658 10.4861 8.16658 9.99992C8.16658 9.51369 8.35974 9.04737 8.70356 8.70356C9.04737 8.35974 9.51369 8.16658 9.99992 8.16658C10.4861 8.16658 10.9525 8.35974 11.2963 8.70356C11.6401 9.04737 11.8333 9.51369 11.8333 9.99992C11.8333 10.4861 11.6401 10.9525 11.2963 11.2963C10.9525 11.6401 10.4861 11.8333 9.99992 11.8333Z"/>
    </symbol>
    <symbol id="moon" width="18" height="18" viewBox="0 0 18 18" fill="none" xmlns="http://www.w3.org/2000/svg">
        <path d="M16.9414 12.275C16.8081 12.05 16.4331 11.7 15.4998 11.8667C14.9831 11.9583 14.4581 12 13.9331 11.975C11.9914 11.8917 10.2331 11 9.00809 9.625C7.92476 8.41666 7.25809 6.84166 7.24976 5.14166C7.24976 4.19166 7.43309 3.275 7.80809 2.40833C8.17476 1.56666 7.91642 1.125 7.73309 0.941662C7.54142 0.749995 7.09142 0.483329 6.20809 0.849995C2.79976 2.28333 0.691424 5.7 0.941424 9.35833C1.19142 12.8 3.60809 15.7417 6.80809 16.85C7.57476 17.1167 8.38309 17.275 9.21642 17.3083C9.34976 17.3167 9.48309 17.325 9.61642 17.325C12.4081 17.325 15.0248 16.0083 16.6748 13.7667C17.2331 12.9917 17.0831 12.5 16.9414 12.275Z" fill="white"/>
    </symbol>
    <symbol id="nav-clients" xmlns="http://www.w3.org/2000/svg" viewBox="0 0 24 24" fill="currentColor">
        <path d="M16 11c1.66 0 2.99-1.34 2.99-3S17.66 5 16 5c-1.66 0-3 1.34-3 3s1.34 3 3 3zm-8 0c1.66 0 2.99-1.34 2.99-3S9.66 5 8 5C6.34 5 5 6.34 5 8s1.34 3 3 3zm0 2c-2.33 0-7 1.17-7 3.5V19h14v-2.5c0-2.33-4.67-3.5-7-3.5zm8 0c-.29 0-.62.02-.97.05 1.16.84 1.97 1.97 1.97 3.45V19h6v-2.5c0-2.33-4.67-3.5-7-3.5z"/>
    </symbol>
    <symbol id="nav-dashboard" viewBox="0 0 18 18" fill="currentColor" xmlns="http://www.w3.org/2000/svg">
        <path fill-rule="evenodd" clip-rule="evenodd" d="M5.75124 1.50024H12.857C15.4447 1.50024 16.9056 2.94699 16.9132 5.49774V12.5027C16.9132 15.0527 15.4447 16.5002 12.857 16.5002H5.75124C3.16352 16.5002 1.6958 15.0527 1.6958 12.5027V5.49774C1.6958 2.94699 3.16352 1.50024 5.75124 1.50024ZM9.34183 13.3952C9.66976 13.3952 9.94292 13.1552 9.97335 12.8327V5.19024C10.0038 4.95774 9.89042 4.72449 9.68498 4.59774C9.47118 4.47024 9.21248 4.47024 9.00781 4.59774C8.80161 4.72449 8.68824 4.95774 8.71031 5.19024V12.8327C8.74911 13.1552 9.02226 13.3952 9.34183 13.3952ZM12.8426 13.3952C13.1622 13.3952 13.4353 13.1552 13.4741 12.8327V10.3727C13.4962 10.132 13.3828 9.90775 13.1766 9.78025C12.9719 9.65275 12.7132 9.65275 12.5002 9.78025C12.294 9.90775 12.1806 10.132 12.2111 10.3727V12.8327C12.2415 13.1552 12.5147 13.3952 12.8426 13.3952ZM6.42767 12.8327C6.39724 13.1552 6.12409 13.3952 5.79615 13.3952C5.46898 13.3952 5.19506 13.1552 5.16539 12.8327V7.65024C5.14256 7.41699 5.25593 7.18524 5.46213 7.05774C5.6668 6.93024 5.92626 6.93024 6.13169 7.05774C6.33637 7.18524 6.45126 7.41699 6.42767 7.65024V12.8327Z"/>
    </symbol>
    <symbol id="nav-integrations" viewBox="0 0 24 24" fill="currentColor" xmlns="http://www.w3.org/2000/svg">
        <path d="M12 2l-5.5 9h11z"/>
        <circle cx="17.5" cy="17.5" r="4.5"/>
        <path d="M3 13.5h8v8H3z"/>
    </symbol>
    <symbol id="nav-interactions" viewBox="0 0 24 24" fill="currentColor" xmlns="http://www.w3.org/2000/svg">
        <path d="M12 2C6.48 2 2 6.48 2 12s4.48 10 10 10 10-4.48 10-10S17.52 2 12 2zm-2 15l-5-5 1.41-1.41L10 14.17l7.59-7.59L19 8l-9 9z"/>
    </symbol>
    <symbol id="nav-keys" viewBox="0 0 24 24" xmlns="http://www.w3.org/2000/svg" fill="currentColor">
        <path d="M18 8h-1V6c0-2.76-2.24-5-5-5S7 3.24 7 6v2H6c-1.1 0-2 .9-2 2v10c0 1.1.9 2 2 2h12c1.1 0 2-.9 2-2V10c0-1.1-.9-2-2-2zm-6 9c-1.1 0-2-.9-2-2s.9-2 2-2 2 .9 2 2-.9 2-2 2zm3.1-9H8.9V6c0-1.71 1.39-3.1 3.1-3.1 1.71 0 3.1 1.39 3.1 3.1v2z"/>
    </symbol>
    <symbol id="nav-knowledge-base" viewBox="0 0 24 24" xmlns="http://www.w3.org/2000/svg" fill="currentColor">
        <path d="M19 2H5c-1.11 0-2 .9-2 2v14c0 1.1.89 2 2 2h4l3 3 3-3h4c1.1 0 2-.9 2-2V4c0-1.1-.9-2-2-2zm-6 16h-2v-2h2v2zm2.07-7.75l-.9.92C13.45 11.9 13 12.5 13 14h-2v-.5c0-1.1.45-2.1 1.17-2.83l1.24-1.26c.37-.36.59-.86.59-1.41 0-1.1-.9-2-2-2s-2 .9-2 2H8c0-2.21 1.79-4 4-4s4 1.79 4 4c0 .88-.36 1.68-.93 2.25z"/>
    </symbol>
    <symbol id="nav-profiles" viewBox="0 0 24 24" xmlns="http://www.w3.org/2000/svg" fill="currentColor">
        <path d="M7 24h2v-2H7v2zm4 0h2v-2h-2v2zm4 0h2v-2h-2v2zM16 .01L8 0C6.9 0 6 .9 6 2v16c0 1.1.9 2 2 2h8c1.1 0 2-.9 2-2V2c0-1.1-.9-1.99-2-1.99zM16 16H8V4h8v12z"/>
    </symbol>
    <symbol id="nav-schemas" viewBox="0 0 24 24" xmlns="http://www.w3.org/2000/svg" fill="currentColor">
        <path d="M22 18v-2H8V4h2L7 1 4 4h2v2H2v2h4v8c0 1.1.9 2 2 2h8v2h-2l3 3 3-3h-2v-2h4zM10 8h6v6h2V8c0-1.1-.9-2-2-2h-6v2z"/>
    </symbol>
    <symbol id="nav-service-info" viewBox="0 0 24 24" xmlns="http://www.w3.org/2000/svg" fill="currentColor">
        <path d="M12 2C6.48 2 2 6.48 2 12s4.48 10 10 10 10-4.48 10-10S17.52 2 12 2zm1 15h-2v-6h2v6zm0-8h-2V7h2v2z"/>
    </symbol>
    <symbol id="nav-ssi-oauth" viewBox="0 0 24 24" xmlns="http://www.w3.org/2000/svg" fill="currentColor">
        <path d="M12.65 10C11.83 7.67 9.61 6 7 6c-3.31 0-6 2.69-6 6s2.69 6 6 6c2.61 0 4.83-1.67 5.65-4H17v4h4v-4h2v-4H12.65zM7 14c-1.1 0-2-.9-2-2s.9-2 2-2 2 .9 2 2-.9 2-2 2z"/>
    </symbol>
    <symbol id="nav-users" viewBox="0 0 24 24" xmlns="http://www.w3.org/2000/svg" fill="currentColor">
        <path d="M12 2c1.1 0 2 .9 2 2s-.9 2-2 2-2-.9-2-2 .9-2 2-2zm9 7h-6v13h-2v-6h-2v6H9V9H3V7h18v2z"/>
    </symbol>
    <symbol id="notepad-hover" width="37" height="35" viewBox="0 0 37 35" xmlns="http://www.w3.org/2000/svg">
        <rect x="0.5" y="0.5" width="36" height="34" rx="3.5" fill="#0F9D58" stroke="#0E9654"/>
    </symbol>
    <symbol id="notepad" width="37" height="35" viewBox="0 0 37 35" xmlns="http://www.w3.org/2000/svg">
        <rect x="0.5" y="0.5" width="36" height="34" rx="3.5" stroke="#0F9D58"/>
        <path d="M21.8889 11.1228V12.6807H24.2277C24.6539 12.6807 25 13.0274 25 13.4543V25.9288C25 26.3556 24.6539 26.7023 24.2277 26.7023H11.7723C11.3461 26.7023 11 26.3556 11 25.9288V13.4543C11 13.0274 11.3461 12.6807 11.7723 12.6807H14.1111V11.1228H21.8889ZM14.1111 14.2387H12.5556V25.1443H23.4444V14.2387H21.8889V15.7966H14.1111V14.2387ZM15.6667 22.0284V23.5864H14.1111V22.0284H15.6667ZM15.6667 19.6915V21.2495H14.1111V19.6915H15.6667ZM15.6667 17.3546V18.9125H14.1111V17.3546H15.6667ZM20.3333 12.6807H15.6667V14.2387H20.3333V12.6807Z"/>
    </symbol>
    <symbol id="pencil" width="10" height="10" viewBox="0 0 10 10" xmlns="http://www.w3.org/2000/svg">
        <path d="M7.08261 3.70423L6.29577 2.91739L1.11292 8.10025V8.88708H1.89975L7.08261 3.70423ZM7.86944 2.91739L8.65627 2.13056L7.86944 1.34373L7.08261 2.13056L7.86944 2.91739ZM2.3605 10H0V7.63895L7.47602 0.162924C7.58037 0.0586037 7.72189 0 7.86944 0C8.01699 0 8.1585 0.0586037 8.26285 0.162924L9.83708 1.73715C9.9414 1.8415 10 1.98301 10 2.13056C10 2.27811 9.9414 2.41963 9.83708 2.52398L2.3605 10Z"/>
    </symbol>
    <symbol id="radar" width="20" height="20" viewBox="0 0 20 20" xmlns="http://www.w3.org/2000/svg">
        <path d="M10 0C4.48 0 0 4.48 0 10C0 15.52 4.48 20 10 20C15.52 20 20 15.52 20 10C20 4.48 15.52 0 10 0ZM10 17.75C5.73 17.75 2.25 14.27 2.25 10C2.25 8.64 2.61 7.31 3.28 6.14C3.48 5.78 3.94 5.66 4.3 5.86L10.37 9.35C10.73 9.56 10.85 10.01 10.65 10.37C10.44 10.73 9.99 10.85 9.63 10.65L6.72 8.98C6.62 9.31 6.55 9.65 6.55 10C6.55 11.9 8.1 13.45 10 13.45C11.9 13.45 13.45 11.9 13.45 10C13.45 8.1 11.9 6.55 10 6.55C9.49 6.55 8.99 6.66 8.53 6.88C8.15 7.06 7.71 6.9 7.53 6.52C7.35 6.15 7.51 5.7 7.89 5.52C8.55 5.21 9.26 5.05 10 5.05C12.73 5.05 14.95 7.27 14.95 10C14.95 12.73 12.73 14.95 10 14.95C7.27 14.95 5.05 12.73 5.05 10C5.05 9.39 5.17 8.78 5.39 8.21L4.24 7.56C3.92 8.33 3.75 9.16 3.75 10C3.75 13.45 6.55 16.25 10 16.25C13.45 16.25 16.25 13.45 16.25 10C16.25 6.55 13.45 3.75 10 3.75C8.64 3.75 7.34 4.18 6.25 5C5.92 5.25 5.45 5.18 5.2 4.85C4.95 4.52 5.02 4.05 5.35 3.8C6.7 2.79 8.31 2.25 10 2.25C14.27 2.25 17.75 5.73 17.75 10C17.75 14.27 14.27 17.75 10 17.75Z"/>
    </symbol>
    <symbol id="reset-password" width="20" height="18" viewBox="0 0 20 18" fill="none" xmlns="http://www.w3.org/2000/svg">
        <path d="M8.75731 8.82752L16.6063 0.978516L18.0203 2.39252L16.6063 3.80752L19.0803 6.28152L17.6663 7.69652L15.1913 5.22152L13.7773 6.63552L15.8983 8.75652L14.4843 10.1715L12.3633 8.04952L10.1713 10.2415C10.8518 11.2755 11.1247 12.5251 10.9372 13.7486C10.7498 14.9722 10.1154 16.0828 9.15658 16.8657C8.1978 17.6485 6.98279 18.0481 5.74648 17.9872C4.51017 17.9262 3.34039 17.409 2.46331 16.5355C1.58433 15.6598 1.06233 14.4886 0.99876 13.2495C0.935187 12.0104 1.33458 10.792 2.11932 9.83093C2.90406 8.8699 4.01808 8.23496 5.24487 8.04951C6.47166 7.86407 7.72358 8.14137 8.75731 8.82752ZM8.12031 15.1205C8.41162 14.845 8.64474 14.5138 8.80589 14.1466C8.96703 13.7795 9.05293 13.3837 9.05851 12.9827C9.06408 12.5818 8.98922 12.1838 8.83835 11.8123C8.68748 11.4408 8.46366 11.1032 8.18012 10.8197C7.89658 10.5362 7.55907 10.3123 7.18755 10.1615C6.81603 10.0106 6.41803 9.93574 6.01708 9.94132C5.61613 9.94689 5.22037 10.0328 4.85319 10.1939C4.486 10.3551 4.15485 10.5882 3.87931 10.8795C3.33283 11.4453 3.03045 12.2031 3.03728 12.9897C3.04412 13.7763 3.35963 14.5287 3.91585 15.085C4.47208 15.6412 5.22451 15.9567 6.0111 15.9635C6.79769 15.9704 7.5555 15.668 8.12131 15.1215L8.12031 15.1205Z" fill="currentColor"/>
    </symbol>
    <symbol id="resetpassword" width="20" height="18" viewBox="0 0 20 18" fill="none" xmlns="http://www.w3.org/2000/svg">
        <path d="M8.75731 8.82752L16.6063 0.978516L18.0203 2.39252L16.6063 3.80752L19.0803 6.28152L17.6663 7.69652L15.1913 5.22152L13.7773 6.63552L15.8983 8.75652L14.4843 10.1715L12.3633 8.04952L10.1713 10.2415C10.8518 11.2755 11.1247 12.5251 10.9372 13.7486C10.7498 14.9722 10.1154 16.0828 9.15658 16.8657C8.1978 17.6485 6.98279 18.0481 5.74648 17.9872C4.51017 17.9262 3.34039 17.409 2.46331 16.5355C1.58433 15.6598 1.06233 14.4886 0.99876 13.2495C0.935187 12.0104 1.33458 10.792 2.11932 9.83093C2.90406 8.8699 4.01808 8.23496 5.24487 8.04951C6.47166 7.86407 7.72358 8.14137 8.75731 8.82752ZM8.12031 15.1205C8.41162 14.845 8.64474 14.5138 8.80589 14.1466C8.96703 13.7795 9.05293 13.3837 9.05851 12.9827C9.06408 12.5818 8.98922 12.1838 8.83835 11.8123C8.68748 11.4408 8.46366 11.1032 8.18012 10.8197C7.89658 10.5362 7.55907 10.3123 7.18755 10.1615C6.81603 10.0106 6.41803 9.93574 6.01708 9.94132C5.61613 9.94689 5.22037 10.0328 4.85319 10.1939C4.486 10.3551 4.15485 10.5882 3.87931 10.8795C3.33283 11.4453 3.03045 12.2031 3.03728 12.9897C3.04412 13.7763 3.35963 14.5287 3.91585 15.085C4.47208 15.6412 5.22451 15.9567 6.0111 15.9635C6.79769 15.9704 7.5555 15.668 8.12131 15.1215L8.12031 15.1205Z" fill="#2D3436"/>
    </symbol>
    <symbol id="saved-task" width="19" height="18" viewBox="0 0 19 18" xmlns="http://www.w3.org/2000/svg">
        <path d="M16 0C17.657 0 19 1.343 19 3C19 4.657 17.657 6 16 6H13C11.694 6 10.583 5.166 10.171 4H9C7.9 4 7 4.9 7 6V6.171C8.166 6.583 9 7.694 9 9C9 10.306 8.166 11.417 7 11.829V12C7 13.1 7.9 14 9 14H10.17C10.582 12.835 11.694 12 13 12H16C17.657 12 19 13.343 19 15C19 16.657 17.657 18 16 18H13C11.694 18 10.583 17.166 10.171 16H9C6.79 16 5 14.21 5 12H3C1.343 12 0 10.657 0 9C0 7.343 1.343 6 3 6H5C5 3.79 6.79 2 9 2H10.17C10.582 0.835 11.694 0 13 0H16ZM16 14H13C12.448 14 12 14.448 12 15C12 15.552 12.448 16 13 16H16C16.552 16 17 15.552 17 15C17 14.448 16.552 14 16 14ZM6 8H3C2.448 8 2 8.448 2 9C2 9.552 2.448 10 3 10H6C6.552 10 7 9.552 7 9C7 8.448 6.552 8 6 8ZM16 2H13C12.448 2 12 2.448 12 3C12 3.552 12.448 4 13 4H16C16.552 4 17 3.552 17 3C17 2.448 16.552 2 16 2Z"/>
    </symbol>
    <symbol id="scheduled" width="20" height="21" viewBox="0 0 20 21" xmlns="http://www.w3.org/2000/svg">
        <path d="M10 20.0317C4.477 20.0317 0 15.6753 0 10.301C0 4.92675 4.477 0.570312 10 0.570312C15.523 0.570312 20 4.92675 20 10.301C20 15.6753 15.523 20.0317 10 20.0317ZM10 18.0856C12.1217 18.0856 14.1566 17.2654 15.6569 15.8055C17.1571 14.3457 18 12.3656 18 10.301C18 8.23643 17.1571 6.25639 15.6569 4.7965C14.1566 3.33661 12.1217 2.51646 10 2.51646C7.87827 2.51646 5.84344 3.33661 4.34315 4.7965C2.84285 6.25639 2 8.23643 2 10.301C2 12.3656 2.84285 14.3457 4.34315 15.8055C5.84344 17.2654 7.87827 18.0856 10 18.0856ZM11 10.301H15V12.2472H9V5.43567H11V10.301Z"/>
    </symbol>
    <symbol id="search" width="18" height="18" viewBox="0 0 18 18" fill="currentColor" xmlns="http://www.w3.org/2000/svg">
        <path d="M14.0257 12.8473L17.5948 16.4157L16.4157 17.5948L12.8473 14.0257C11.5196 15.09 9.86817 15.6689 8.1665 15.6665C4.0265 15.6665 0.666504 12.3065 0.666504 8.1665C0.666504 4.0265 4.0265 0.666504 8.1665 0.666504C12.3065 0.666504 15.6665 4.0265 15.6665 8.1665C15.6689 9.86817 15.09 11.5196 14.0257 12.8473ZM12.354 12.229C13.4116 11.1414 14.0022 9.68353 13.9998 8.1665C13.9998 4.94317 11.389 2.33317 8.1665 2.33317C4.94317 2.33317 2.33317 4.94317 2.33317 8.1665C2.33317 11.389 4.94317 13.9998 8.1665 13.9998C9.68353 14.0022 11.1414 13.4116 12.229 12.354L12.354 12.229Z"/>
    </symbol>
    <symbol id="select-arrow" width="9" height="6" viewBox="0 0 9 6" xmlns="http://www.w3.org/2000/svg">
        <path d="M4.5 5.02268L0 0.484436H9L4.5 5.02268Z" fill="#939191"/>
    </symbol>
    <symbol id="some" stroke="currentColor" fill="currentColor" stroke-width="0" viewBox="0 0 1024 1024" height="1em" width="1em" xmlns="http://www.w3.org/2000/svg">
        <path d="M715.8 493.5L335 165.1c-14.2-12.2-35-1.2-35 18.5v656.8c0 19.7 20.8 30.7 35 18.5l380.8-328.4c10.9-9.4 10.9-27.6 0-37z"></path>
    </symbol>
    <symbol id="stop" width="12" height="12" viewBox="0 0 12 12" xmlns="http://www.w3.org/2000/svg">
        <path d="M6 12C2.6862 12 0 9.3138 0 6C0 2.6862 2.6862 0 6 0C9.3138 0 12 2.6862 12 6C12 9.3138 9.3138 12 6 12ZM6 10.8C7.27304 10.8 8.49394 10.2943 9.39411 9.39411C10.2943 8.49394 10.8 7.27304 10.8 6C10.8 4.72696 10.2943 3.50606 9.39411 2.60589C8.49394 1.70571 7.27304 1.2 6 1.2C4.72696 1.2 3.50606 1.70571 2.60589 2.60589C1.70571 3.50606 1.2 4.72696 1.2 6C1.2 7.27304 1.70571 8.49394 2.60589 9.39411C3.50606 10.2943 4.72696 10.8 6 10.8ZM4.2 4.2H7.8V7.8H4.2V4.2Z"/>
    </symbol>
    <symbol id="success" width="25" height="24" viewBox="0 0 25 24" xmlns="http://www.w3.org/2000/svg">
        <path d="M16.1915 2H7.81146C4.17146 2 2.00146 4.17 2.00146 7.81V16.18C2.00146 19.83 4.17146 22 7.81146 22H16.1815C19.8215 22 21.9915 19.83 21.9915 16.19V7.81C22.0015 4.17 19.8315 2 16.1915 2ZM19.0015 8.24C19.0015 8.79 18.5515 9.24 18.0015 9.24H16.0015C15.5915 9.24 15.2515 9.58 15.2515 9.99C15.2515 10.41 15.5915 10.74 16.0015 10.74H18.0015C18.5515 10.74 19.0015 11.19 19.0015 11.74V12.25C19.0015 12.8 18.5515 13.25 18.0015 13.25H16.0015C15.5915 13.25 15.2515 13.59 15.2515 14C15.2515 14.41 15.5915 14.75 16.0015 14.75H18.0015C18.5515 14.75 19.0015 15.2 19.0015 15.75V16C19.0015 17.66 17.6615 19 16.0015 19H8.00146C6.34146 19 5.00146 17.66 5.00146 16V15.5C5.00146 14.95 5.45146 14.5 6.00146 14.5H7.48146C8.95146 14.5 10.1215 13.24 9.97147 11.74C9.84146 10.44 8.65146 9.5 7.34146 9.5H6.00146C5.45146 9.5 5.00146 9.05 5.00146 8.5V8C5.00146 6.34 6.34146 5 8.00146 5H16.0015C17.6615 5 19.0015 6.34 19.0015 8V8.24ZM5.00146 12C5.00146 11.45 5.45146 11 6.00146 11H7.00146C7.55147 11 8.00146 11.45 8.00146 12C8.00146 12.55 7.55147 13 7.00146 13H6.00146C5.45146 13 5.00146 12.55 5.00146 12Z" fill="#292D32"/>
    </symbol>
    <symbol id="summary" width="20" height="18" viewBox="0 0 20 18" xmlns="http://www.w3.org/2000/svg">
        <path d="M0 9.98378H6V17.7243H0V9.98378ZM14 5.14594H20V17.7243H14V5.14594ZM7 0.308105H13V17.7243H7V0.308105ZM2 11.9189V15.7892H4V11.9189H2ZM9 2.24324V15.7892H11V2.24324H9ZM16 7.08108V15.7892H18V7.08108H16Z"/>
    </symbol>
    <symbol id="sun" width="20" height="20" viewBox="0 0 20 20" fill="none" xmlns="http://www.w3.org/2000/svg">
        <path d="M9.99984 15.8334C13.2215 15.8334 15.8332 13.2217 15.8332 10C15.8332 6.77836 13.2215 4.16669 9.99984 4.16669C6.77818 4.16669 4.1665 6.77836 4.1665 10C4.1665 13.2217 6.77818 15.8334 9.99984 15.8334Z" fill="#F7DA47"/>
        <path d="M10.0002 19.1333C9.54183 19.1333 9.16683 18.7916 9.16683 18.3333V18.2666C9.16683 17.8083 9.54183 17.4333 10.0002 17.4333C10.4585 17.4333 10.8335 17.8083 10.8335 18.2666C10.8335 18.725 10.4585 19.1333 10.0002 19.1333ZM15.9502 16.7833C15.7335 16.7833 15.5252 16.7 15.3585 16.5416L15.2502 16.4333C14.9252 16.1083 14.9252 15.5833 15.2502 15.2583C15.5752 14.9333 16.1002 14.9333 16.4252 15.2583L16.5335 15.3666C16.8585 15.6916 16.8585 16.2166 16.5335 16.5416C16.3752 16.7 16.1668 16.7833 15.9502 16.7833ZM4.05016 16.7833C3.8335 16.7833 3.62516 16.7 3.4585 16.5416C3.1335 16.2166 3.1335 15.6916 3.4585 15.3666L3.56683 15.2583C3.89183 14.9333 4.41683 14.9333 4.74183 15.2583C5.06683 15.5833 5.06683 16.1083 4.74183 16.4333L4.6335 16.5416C4.47516 16.7 4.2585 16.7833 4.05016 16.7833ZM18.3335 10.8333H18.2668C17.8085 10.8333 17.4335 10.4583 17.4335 9.99998C17.4335 9.54165 17.8085 9.16665 18.2668 9.16665C18.7252 9.16665 19.1335 9.54165 19.1335 9.99998C19.1335 10.4583 18.7918 10.8333 18.3335 10.8333ZM1.7335 10.8333H1.66683C1.2085 10.8333 0.833496 10.4583 0.833496 9.99998C0.833496 9.54165 1.2085 9.16665 1.66683 9.16665C2.12516 9.16665 2.5335 9.54165 2.5335 9.99998C2.5335 10.4583 2.19183 10.8333 1.7335 10.8333ZM15.8418 4.99165C15.6252 4.99165 15.4168 4.90831 15.2502 4.74998C14.9252 4.42498 14.9252 3.89998 15.2502 3.57498L15.3585 3.46665C15.6835 3.14165 16.2085 3.14165 16.5335 3.46665C16.8585 3.79165 16.8585 4.31665 16.5335 4.64165L16.4252 4.74998C16.2668 4.90831 16.0585 4.99165 15.8418 4.99165ZM4.1585 4.99165C3.94183 4.99165 3.7335 4.90831 3.56683 4.74998L3.4585 4.63331C3.1335 4.30831 3.1335 3.78331 3.4585 3.45831C3.7835 3.13331 4.3085 3.13331 4.6335 3.45831L4.74183 3.56665C5.06683 3.89165 5.06683 4.41665 4.74183 4.74165C4.5835 4.90831 4.36683 4.99165 4.1585 4.99165ZM10.0002 2.53331C9.54183 2.53331 9.16683 2.19165 9.16683 1.73331V1.66665C9.16683 1.20831 9.54183 0.833313 10.0002 0.833313C10.4585 0.833313 10.8335 1.20831 10.8335 1.66665C10.8335 2.12498 10.4585 2.53331 10.0002 2.53331Z" fill="#F7DA47"/>
    </symbol>
    <symbol id="three-dot" width="19" height="4" viewBox="0 0 19 4" xmlns="http://www.w3.org/2000/svg">
        <path d="M0 1.64215C0 2.46658 0.680736 3.14111 1.51275 3.14111C2.34476 3.14111 3.02549 2.46658 3.02549 1.64215C3.02549 0.817722 2.34476 0.143188 1.51275 0.143188C0.680736 0.143188 0 0.817722 0 1.64215ZM15.1275 1.64215C15.1275 2.46658 15.8082 3.14111 16.6402 3.14111C17.4722 3.14111 18.153 2.46658 18.153 1.64215C18.153 0.817722 17.4722 0.143188 16.6402 0.143188C15.8082 0.143188 15.1275 0.817722 15.1275 1.64215ZM7.56373 1.64215C7.56373 2.46658 8.24447 3.14111 9.07648 3.14111C9.90849 3.14111 10.5892 2.46658 10.5892 1.64215C10.5892 0.817722 9.90849 0.143188 9.07648 0.143188C8.24447 0.143188 7.56373 0.817722 7.56373 1.64215Z" fill="currentColor"/>
    </symbol>
    <symbol id="thumb" width="48" height="33" viewBox="0 0 48 33" fill="none" xmlns="http://www.w3.org/2000/svg">
        <rect x="0.5" y="-0.5" width="46.2798" height="27" rx="3.5" transform="matrix(1 0 0 -1 0.595215 32)" fill="#0F9D58"/>
        <path d="M25.5952 0L29.9253 7.5H21.2651L25.5952 0Z" fill="#0F9D58"/>
        <rect x="0.5" y="-0.5" width="46.2798" height="27" rx="3.5" transform="matrix(1 0 0 -1 0.595215 32)" stroke="#0F9D58"/>
    </symbol>
    <symbol id="tick" width="20" height="20" viewBox="0 0 20 20" fill="none" xmlns="http://www.w3.org/2000/svg">
        <path d="M10 20C4.477 20 0 15.523 0 10C0 4.477 4.477 0 10 0C15.523 0 20 4.477 20 10C20 15.523 15.523 20 10 20ZM9.003 14L16.073 6.929L14.659 5.515L9.003 11.172L6.174 8.343L4.76 9.757L9.003 14Z" fill="#0F9D58"/>
    </symbol>
    <symbol id="trash" width="14" height="14" viewBox="0 0 14 14" fill="currentColor" xmlns="http://www.w3.org/2000/svg">
        <path d="M12.2908 3.05085C11.3517 2.95752 10.4125 2.88752 9.46751 2.83502V2.82919L9.33918 2.07085C9.25168 1.53419 9.12334 0.729187 7.75834 0.729187H6.23001C4.87084 0.729187 4.74251 1.49919 4.64918 2.06502L4.52668 2.81169C3.98418 2.84669 3.44168 2.88169 2.89918 2.93419L1.70918 3.05085C1.46418 3.07419 1.28918 3.29002 1.31251 3.52919C1.33584 3.76835 1.54584 3.94335 1.79084 3.92002L2.98084 3.80335C6.03751 3.50002 9.11751 3.61669 12.2092 3.92585C12.2267 3.92585 12.2383 3.92585 12.2558 3.92585C12.4775 3.92585 12.67 3.75669 12.6933 3.52919C12.7108 3.29002 12.5358 3.07419 12.2908 3.05085Z"/>
        <path d="M11.2175 4.74831C11.0775 4.60248 10.885 4.52081 10.6867 4.52081H3.31335C3.11502 4.52081 2.91668 4.60248 2.78252 4.74831C2.64835 4.89415 2.57252 5.09248 2.58418 5.29665L2.94585 11.2816C3.01002 12.1683 3.09168 13.2766 5.12752 13.2766H8.87252C10.9084 13.2766 10.99 12.1741 11.0542 11.2816L11.4159 5.30248C11.4275 5.09248 11.3517 4.89415 11.2175 4.74831ZM7.96835 10.3541H6.02585C5.78668 10.3541 5.58835 10.1558 5.58835 9.91665C5.58835 9.67748 5.78668 9.47915 6.02585 9.47915H7.96835C8.20752 9.47915 8.40585 9.67748 8.40585 9.91665C8.40585 10.1558 8.20752 10.3541 7.96835 10.3541ZM8.45835 8.02081H5.54168C5.30252 8.02081 5.10418 7.82248 5.10418 7.58331C5.10418 7.34415 5.30252 7.14581 5.54168 7.14581H8.45835C8.69752 7.14581 8.89585 7.34415 8.89585 7.58331C8.89585 7.82248 8.69752 8.02081 8.45835 8.02081Z"/>
    </symbol>
    <symbol id="upload-icon" xmlns="http://www.w3.org/2000/svg" x="0px" y="0px" viewBox="0 0 122.88 110.9" style="enable-background:new 0 0 122.88 110.9" xml:space="preserve">
        <style>
            .st0__upload-icon {
                fill-rule: evenodd;
                clip-rule: evenodd;
            }
        </style>
        <g>
            <path class="st0__upload-icon" d="M13.09,46.93h30.58v12.45l34.49,0V46.93l31.47,0L61.39,0L13.09,46.93L13.09,46.93z M61.44,97.88l47.51-0.14 l4.54-21.51l9.38,0.31v34.35L0,110.9V76.54l9.39-0.31l4.54,21.51L61.44,97.88L61.44,97.88z M43.67,82.57h34.49v-4.62H43.67V82.57 L43.67,82.57z M43.67,73.26h34.49v-9.44H43.67V73.26L43.67,73.26z"/>
        </g>
    </symbol>
    <symbol id="upload" width="20" height="18" viewBox="0 0 20 18" fill="none" xmlns="http://www.w3.org/2000/svg">
        <path d="M2 16H18V9H20V17C20 17.2652 19.8946 17.5196 19.7071 17.7071C19.5196 17.8946 19.2652 18 19 18H1C0.734784 18 0.48043 17.8946 0.292893 17.7071C0.105357 17.5196 0 17.2652 0 17V9H2V16ZM11 6V13H9V6H4L10 0L16 6H11Z" fill="black"/>
    </symbol>
    <symbol id="user-account" width="14" height="14" viewBox="0 0 14 14" fill="currentColor" xmlns="http://www.w3.org/2000/svg">
        <path d="M7 14C3.1339 14 0 10.8661 0 7C0 3.1339 3.1339 0 7 0C10.8661 0 14 3.1339 14 7C14 10.8661 10.8661 14 7 14ZM3.5091 11.3792C4.49998 12.1714 5.73138 12.602 7 12.6C8.379 12.6 9.6411 12.1016 10.6169 11.2756C10.161 10.8078 9.61594 10.4362 9.01392 10.1828C8.41191 9.92931 7.76519 9.79916 7.112 9.8C6.43481 9.79922 5.76485 9.9392 5.14463 10.211C4.5244 10.4829 3.96745 10.8807 3.5091 11.3792ZM2.5312 10.374C3.11952 9.74965 3.82947 9.2524 4.6173 8.9129C5.40513 8.5734 6.25414 8.39885 7.112 8.4C7.93916 8.39892 8.75838 8.56125 9.52262 8.87767C10.2869 9.19408 10.9811 9.65834 11.5654 10.2438C12.1647 9.40039 12.5185 8.40744 12.5878 7.37514C12.6571 6.34283 12.439 5.31152 11.9577 4.39562C11.4765 3.47972 10.751 2.71504 9.86158 2.18641C8.97219 1.65779 7.95374 1.38589 6.91922 1.40088C5.8847 1.41587 4.87456 1.71716 4.00086 2.27133C3.12717 2.8255 2.42407 3.61088 1.96958 4.54034C1.5151 5.4698 1.32699 6.507 1.42612 7.53686C1.52526 8.56673 1.90776 9.549 2.5312 10.3747V10.374ZM7 7.7C6.25739 7.7 5.5452 7.405 5.0201 6.8799C4.495 6.3548 4.2 5.64261 4.2 4.9C4.2 4.15739 4.495 3.4452 5.0201 2.9201C5.5452 2.395 6.25739 2.1 7 2.1C7.74261 2.1 8.4548 2.395 8.9799 2.9201C9.505 3.4452 9.8 4.15739 9.8 4.9C9.8 5.64261 9.505 6.3548 8.9799 6.8799C8.4548 7.405 7.74261 7.7 7 7.7ZM7 6.3C7.3713 6.3 7.7274 6.1525 7.98995 5.88995C8.2525 5.6274 8.4 5.2713 8.4 4.9C8.4 4.5287 8.2525 4.1726 7.98995 3.91005C7.7274 3.6475 7.3713 3.5 7 3.5C6.6287 3.5 6.2726 3.6475 6.01005 3.91005C5.7475 4.1726 5.6 4.5287 5.6 4.9C5.6 5.2713 5.7475 5.6274 6.01005 5.88995C6.2726 6.1525 6.6287 6.3 7 6.3Z"/>
    </symbol>
    <symbol id="user-details" width="16" height="21" viewBox="0 0 16 21" xmlns="http://www.w3.org/2000/svg">
        <path d="M16 21H14V19C14 18.2044 13.6839 17.4413 13.1213 16.8787C12.5587 16.3161 11.7956 16 11 16H5C4.20435 16 3.44129 16.3161 2.87868 16.8787C2.31607 17.4413 2 18.2044 2 19V21H0V19C0 17.6739 0.526784 16.4021 1.46447 15.4645C2.40215 14.5268 3.67392 14 5 14H11C12.3261 14 13.5979 14.5268 14.5355 15.4645C15.4732 16.4021 16 17.6739 16 19V21ZM8 12C7.21207 12 6.43185 11.8448 5.7039 11.5433C4.97595 11.2417 4.31451 10.7998 3.75736 10.2426C3.20021 9.68549 2.75825 9.02405 2.45672 8.2961C2.15519 7.56815 2 6.78793 2 6C2 5.21207 2.15519 4.43185 2.45672 3.7039C2.75825 2.97595 3.20021 2.31451 3.75736 1.75736C4.31451 1.20021 4.97595 0.758251 5.7039 0.456723C6.43185 0.155195 7.21207 -1.17411e-08 8 0C9.5913 2.37122e-08 11.1174 0.632141 12.2426 1.75736C13.3679 2.88258 14 4.4087 14 6C14 7.5913 13.3679 9.11742 12.2426 10.2426C11.1174 11.3679 9.5913 12 8 12V12ZM8 10C9.06087 10 10.0783 9.57857 10.8284 8.82843C11.5786 8.07828 12 7.06087 12 6C12 4.93913 11.5786 3.92172 10.8284 3.17157C10.0783 2.42143 9.06087 2 8 2C6.93913 2 5.92172 2.42143 5.17157 3.17157C4.42143 3.92172 4 4.93913 4 6C4 7.06087 4.42143 8.07828 5.17157 8.82843C5.92172 9.57857 6.93913 10 8 10V10Z" fill="currentColor"/>
    </symbol>
    <symbol id="user-logout" width="14" height="14" viewBox="0 0 14 14" fill="currentColor" xmlns="http://www.w3.org/2000/svg">
        <path d="M6.36364 14C2.849 14 0 10.8661 0 7C0 3.1339 2.849 1.9728e-06 6.36364 1.9728e-06C7.35169 -0.00081455 8.3263 0.251843 9.21005 0.737901C10.0938 1.22396 10.8623 1.93002 11.4545 2.8H9.73C8.99515 2.08723 8.08893 1.62285 7.12009 1.46258C6.15125 1.30231 5.16095 1.45296 4.26802 1.89645C3.37509 2.33994 2.61746 3.05743 2.08604 3.96283C1.55463 4.86823 1.27201 5.92307 1.27209 7.00078C1.27217 8.07848 1.55495 9.13327 2.0865 10.0386C2.61806 10.9439 3.37579 11.6612 4.26879 12.1046C5.16179 12.5479 6.15212 12.6983 7.12093 12.5379C8.08974 12.3774 8.99589 11.9129 9.73064 11.2H11.4552C10.8629 12.0701 10.0943 12.7762 9.2104 13.2623C8.32654 13.7483 7.3518 14.0009 6.36364 14ZM10.8182 9.8V7.7H5.72727V6.3H10.8182V4.2L14 7L10.8182 9.8Z"/>
    </symbol>
    <symbol id="user-reset" width="14" height="14" viewBox="0 0 14 14" fill="currentColor" xmlns="http://www.w3.org/2000/svg">
        <path d="M11.5759 12.2969C10.3057 13.3975 8.68071 14.0023 7 14C3.1339 14 0 10.8661 0 7C0 3.1339 3.1339 0 7 0C10.8661 0 14 3.1339 14 7C14 8.4952 13.531 9.8812 12.733 11.018L10.5 7H12.6C12.5999 5.70934 12.154 4.45834 11.3377 3.45862C10.5214 2.4589 9.3848 1.77184 8.12023 1.51365C6.85566 1.25547 5.54073 1.44201 4.39787 2.04174C3.25502 2.64146 2.3544 3.61754 1.84837 4.80486C1.34234 5.99218 1.26196 7.31784 1.62084 8.5576C1.97972 9.79735 2.75582 10.8751 3.81786 11.6085C4.87989 12.3419 6.16265 12.6859 7.44915 12.5824C8.73565 12.4789 9.9469 11.9342 10.878 11.0404L11.5759 12.2969Z"/>
    </symbol>
    <symbol id="user-settings" width="14" height="14" fill="currentColor" viewBox="0 0 14 14" xmlns="http://www.w3.org/2000/svg">
        <path d="M0.150944 8.44161C-0.0503147 7.49107 -0.0503147 6.50893 0.150944 5.55839C0.927735 5.64936 1.60655 5.39253 1.82769 4.85788C2.04953 4.32252 1.75211 3.6612 1.13768 3.17623C1.66746 2.36188 2.36188 1.66746 3.17623 1.13768C3.6605 1.75141 4.32252 2.04953 4.85788 1.82769C5.39323 1.60585 5.65006 0.927735 5.55839 0.150944C6.50893 -0.0503147 7.49107 -0.0503147 8.44161 0.150944C8.35064 0.927735 8.60747 1.60655 9.14212 1.82769C9.67748 2.04953 10.3388 1.75211 10.8238 1.13768C11.6381 1.66746 12.3325 2.36188 12.8623 3.17623C12.2486 3.6605 11.9505 4.32252 12.1723 4.85788C12.3941 5.39323 13.0723 5.65006 13.8491 5.55839C14.0503 6.50893 14.0503 7.49107 13.8491 8.44161C13.0723 8.35064 12.3934 8.60747 12.1723 9.14212C11.9505 9.67748 12.2479 10.3388 12.8623 10.8238C12.3325 11.6381 11.6381 12.3325 10.8238 12.8623C10.3395 12.2486 9.67748 11.9505 9.14212 12.1723C8.60677 12.3941 8.34994 13.0723 8.44161 13.8491C7.49107 14.0503 6.50893 14.0503 5.55839 13.8491C5.64936 13.0723 5.39253 12.3934 4.85788 12.1723C4.32252 11.9505 3.6612 12.2479 3.17623 12.8623C2.36188 12.3325 1.66746 11.6381 1.13768 10.8238C1.75141 10.3395 2.04953 9.67748 1.82769 9.14212C1.60585 8.60677 0.927735 8.34994 0.150944 8.44161ZM1.40151 7.14696C2.1713 7.3604 2.80603 7.84817 3.12094 8.60677C3.43516 9.36606 3.33089 10.1603 2.93759 10.8546C3.00478 10.9259 3.07406 10.9952 3.14544 11.0624C3.84035 10.6691 4.63394 10.5655 5.39323 10.8791C6.15183 11.194 6.6396 11.8287 6.85304 12.5985C6.95101 12.6013 7.04899 12.6013 7.14696 12.5985C7.3604 11.8287 7.84817 11.194 8.60677 10.8791C9.36606 10.5648 10.1603 10.6691 10.8546 11.0624C10.9259 10.9952 10.9952 10.9259 11.0624 10.8546C10.6691 10.1596 10.5655 9.36606 10.8791 8.60677C11.194 7.84817 11.8287 7.3604 12.5985 7.14696C12.6013 7.04899 12.6013 6.95101 12.5985 6.85304C11.8287 6.6396 11.194 6.15183 10.8791 5.39323C10.5648 4.63394 10.6691 3.83965 11.0624 3.14544C10.995 3.07433 10.9257 3.00503 10.8546 2.93759C10.1596 3.33089 9.36606 3.43446 8.60677 3.12094C7.84817 2.80603 7.3604 2.1713 7.14696 1.40151C7.049 1.39891 6.951 1.39891 6.85304 1.40151C6.6396 2.1713 6.15183 2.80603 5.39323 3.12094C4.63394 3.43516 3.83965 3.33089 3.14544 2.93759C3.07406 3.00478 3.00478 3.07406 2.93759 3.14544C3.33089 3.84035 3.43446 4.63394 3.12094 5.39323C2.80603 6.15183 2.1713 6.6396 1.40151 6.85304C1.39871 6.95101 1.39871 7.04899 1.40151 7.14696ZM7 9.09943C6.44319 9.09943 5.90919 8.87824 5.51547 8.48452C5.12175 8.0908 4.90056 7.5568 4.90056 7C4.90056 6.44319 5.12175 5.90919 5.51547 5.51547C5.90919 5.12175 6.44319 4.90056 7 4.90056C7.5568 4.90056 8.0908 5.12175 8.48452 5.51547C8.87824 5.90919 9.09943 6.44319 9.09943 7C9.09943 7.5568 8.87824 8.0908 8.48452 8.48452C8.0908 8.87824 7.5568 9.09943 7 9.09943ZM7 7.69981C7.1856 7.69981 7.3636 7.62608 7.49484 7.49484C7.62608 7.3636 7.69981 7.1856 7.69981 7C7.69981 6.8144 7.62608 6.6364 7.49484 6.50516C7.3636 6.37392 7.1856 6.30019 7 6.30019C6.8144 6.30019 6.6364 6.37392 6.50516 6.50516C6.37392 6.6364 6.30019 6.8144 6.30019 7C6.30019 7.1856 6.37392 7.3636 6.50516 7.49484C6.6364 7.62608 6.8144 7.69981 7 7.69981Z"/>
    </symbol>
    <symbol id="userdetails" width="16" height="21" viewBox="0 0 16 21" fill="none" xmlns="http://www.w3.org/2000/svg">
        <path d="M16 21H14V19C14 18.2044 13.6839 17.4413 13.1213 16.8787C12.5587 16.3161 11.7956 16 11 16H5C4.20435 16 3.44129 16.3161 2.87868 16.8787C2.31607 17.4413 2 18.2044 2 19V21H0V19C0 17.6739 0.526784 16.4021 1.46447 15.4645C2.40215 14.5268 3.67392 14 5 14H11C12.3261 14 13.5979 14.5268 14.5355 15.4645C15.4732 16.4021 16 17.6739 16 19V21ZM8 12C7.21207 12 6.43185 11.8448 5.7039 11.5433C4.97595 11.2417 4.31451 10.7998 3.75736 10.2426C3.20021 9.68549 2.75825 9.02405 2.45672 8.2961C2.15519 7.56815 2 6.78793 2 6C2 5.21207 2.15519 4.43185 2.45672 3.7039C2.75825 2.97595 3.20021 2.31451 3.75736 1.75736C4.31451 1.20021 4.97595 0.758251 5.7039 0.456723C6.43185 0.155195 7.21207 -1.17411e-08 8 0C9.5913 2.37122e-08 11.1174 0.632141 12.2426 1.75736C13.3679 2.88258 14 4.4087 14 6C14 7.5913 13.3679 9.11742 12.2426 10.2426C11.1174 11.3679 9.5913 12 8 12ZM8 10C9.06087 10 10.0783 9.57857 10.8284 8.82843C11.5786 8.07828 12 7.06087 12 6C12 4.93913 11.5786 3.92172 10.8284 3.17157C10.0783 2.42143 9.06087 2 8 2C6.93913 2 5.92172 2.42143 5.17157 3.17157C4.42143 3.92172 4 4.93913 4 6C4 7.06087 4.42143 8.07828 5.17157 8.82843C5.92172 9.57857 6.93913 10 8 10Z" fill="#0F9D58"/>
    </symbol>
    <symbol id="warning" width="20" height="20" viewBox="0 0 20 20" fill="none" xmlns="http://www.w3.org/2000/svg">
        <path d="M10 20C4.477 20 0 15.523 0 10C0 4.477 4.477 0 10 0C15.523 0 20 4.477 20 10C20 15.523 15.523 20 10 20ZM9.003 14L16.073 6.929L14.659 5.515L9.003 11.172L6.174 8.343L4.76 9.757L9.003 14Z" fill="#0F9D58"/>
    </symbol>
</svg>