<svg width="18" height="21" viewBox="0 0 18 21" fill="currentColor" xmlns="http://www.w3.org/2000/svg">
  <path d="M8.00008 12.8334V14.6667C6.54139 14.6667 5.14244 15.2462 4.11099 16.2777C3.07954 17.3091 2.50008 18.7081 2.50008 20.1667H0.666748C0.666748 18.2218 1.43937 16.3566 2.81463 14.9813C4.1899 13.606 6.05516 12.8334 8.00008 12.8334ZM8.00008 11.9167C4.96133 11.9167 2.50008 9.4555 2.50008 6.41675C2.50008 3.378 4.96133 0.916748 8.00008 0.916748C11.0388 0.916748 13.5001 3.378 13.5001 6.41675C13.5001 9.4555 11.0388 11.9167 8.00008 11.9167ZM8.00008 10.0834C10.0259 10.0834 11.6667 8.44258 11.6667 6.41675C11.6667 4.39091 10.0259 2.75008 8.00008 2.75008C5.97425 2.75008 4.33342 4.39091 4.33342 6.41675C4.33342 8.44258 5.97425 10.0834 8.00008 10.0834ZM16.2501 15.5834H17.1667V20.1667H9.83342V15.5834H10.7501V14.6667C10.7501 13.9374 11.0398 13.2379 11.5555 12.7222C12.0713 12.2065 12.7707 11.9167 13.5001 11.9167C14.2294 11.9167 14.9289 12.2065 15.4446 12.7222C15.9604 13.2379 16.2501 13.9374 16.2501 14.6667V15.5834ZM14.4167 15.5834V14.6667C14.4167 14.4236 14.3202 14.1905 14.1483 14.0186C13.9764 13.8467 13.7432 13.7501 13.5001 13.7501C13.257 13.7501 13.0238 13.8467 12.8519 14.0186C12.68 14.1905 12.5834 14.4236 12.5834 14.6667V15.5834H14.4167Z"  />
</svg>
  