<svg width="22" height="19" viewBox="0 0 22 19" xmlns="http://www.w3.org/2000/svg">
  <path d="M11.8656 1L21.3916 17.5C21.4794 17.652 21.5256 17.8245 21.5256 18C21.5256 18.1755 21.4794 18.348 21.3916 18.5C21.3038 18.652 21.1776 18.7782 21.0256 18.866C20.8736 18.9538 20.7011 19 20.5256 19H1.47361C1.29807 19 1.12563 18.9538 0.973616 18.866C0.821601 18.7782 0.695366 18.652 0.607601 18.5C0.519836 18.348 0.473632 18.1755 0.473633 18C0.473634 17.8245 0.51984 17.652 0.607607 17.5L10.1336 1C10.2214 0.847994 10.3476 0.721768 10.4996 0.634007C10.6516 0.546247 10.8241 0.500046 10.9996 0.500046C11.1751 0.500046 11.3476 0.546247 11.4996 0.634007C11.6516 0.721768 11.7778 0.847994 11.8656 1ZM9.99961 14V16H11.9996V14H9.99961ZM9.99961 7V12H11.9996V7H9.99961Z" fill="#FFAB00"/>
</svg>
  