<svg fill="currentColor" width="20" height="19" viewBox="0 0 20 19" xmlns="http://www.w3.org/2000/svg">
  <path d="M1 7.3614H0V1.35514C0 0.800281 0.455 0.350588 0.992 0.350588H19.008C19.1393 0.350311 19.2693 0.376187 19.3905 0.426709C19.5117 0.477232 19.6217 0.551392 19.714 0.644875C19.8063 0.738357 19.8791 0.849294 19.9282 0.971231C19.9773 1.09317 20.0017 1.22367 20 1.35514V7.3614H19V17.3778C19.0004 17.5088 18.975 17.6386 18.9253 17.7598C18.8756 17.881 18.8026 17.9912 18.7104 18.0841C18.6182 18.177 18.5086 18.2508 18.3879 18.3013C18.2672 18.3518 18.1378 18.378 18.007 18.3784H1.993C1.8622 18.378 1.73277 18.3518 1.61208 18.3013C1.49139 18.2508 1.38181 18.177 1.2896 18.0841C1.19739 17.9912 1.12436 17.881 1.07467 17.7598C1.02498 17.6386 0.999606 17.5088 1 17.3778V7.3614ZM17 7.3614H3V16.3753H17V7.3614ZM2 2.35368V5.35831H18V2.35368H2ZM7 9.36449H13V11.3676H7V9.36449Z" />
</svg>  