<svg viewBox="0 0 14 14" fill="currentColor" xmlns="http://www.w3.org/2000/svg">
  <path d="M12.7225 2.2983C11.9583 4.2058 10.2142 6.69664 8.55168 8.32414C8.31251 6.81914 7.11084 5.6408 5.59418 5.4308C7.22751 3.76247 9.73584 1.99497 11.6492 1.22497C11.9875 1.09664 12.3258 1.1958 12.5358 1.4058C12.7575 1.62747 12.8625 1.95997 12.7225 2.2983Z" />
  <path d="M8.03834 8.80248C7.92167 8.90164 7.80501 9.00081 7.68834 9.09414L6.64417 9.92831C6.64417 9.91081 6.63834 9.88748 6.63834 9.86414C6.55667 9.23998 6.26501 8.66248 5.79251 8.18998C5.31417 7.71164 4.71917 7.41998 4.06584 7.33831C4.04834 7.33831 4.02501 7.33248 4.00751 7.33248L4.85334 6.26498C4.93501 6.15998 5.02251 6.06081 5.11584 5.95581L5.51251 6.00831C6.76667 6.18331 7.77584 7.16914 7.97417 8.41748L8.03834 8.80248Z" />
  <path d="M6.08417 10.2783C6.08417 10.92 5.83917 11.5325 5.37251 11.9933C5.01667 12.355 4.53834 12.6 3.95501 12.67L2.52584 12.8275C1.74417 12.915 1.07334 12.2441 1.16084 11.4566L1.31834 10.0216C1.45834 8.74414 2.52584 7.92748 3.65751 7.90414C3.76834 7.89831 3.89084 7.90414 4.00751 7.91581C4.50334 7.97998 4.98167 8.20748 5.38417 8.60414C5.775 8.99498 5.99667 9.45581 6.06084 9.93998C6.0725 10.0566 6.08417 10.1675 6.08417 10.2783Z" />
</svg>
  