<svg width="20" height="20" viewBox="0 0 20 20" xmlns="http://www.w3.org/2000/svg">
  <path d="M10.9717 6.43422L12.2687 7.7313C12.8647 8.32715 13.3374 9.03455 13.6599 9.8131C13.9824 10.5916 14.1484 11.4261 14.1484 12.2688C14.1484 13.1115 13.9824 13.946 13.6599 14.7245C13.3374 15.5031 12.8647 16.2104 12.2687 16.8063L11.9442 17.1299C10.7408 18.3333 9.10863 19.0094 7.40674 19.0094C5.70485 19.0094 4.07266 18.3333 2.86924 17.1299C1.66582 15.9265 0.989746 14.2943 0.989746 12.5924C0.989746 10.8905 1.66582 9.2583 2.86924 8.05488L4.16632 9.35197C3.73766 9.77689 3.39715 10.2823 3.16434 10.8392C2.93153 11.396 2.811 11.9934 2.80968 12.597C2.80836 13.2006 2.92627 13.7985 3.15664 14.3564C3.38701 14.9143 3.7253 15.4211 4.1521 15.8479C4.5789 16.2747 5.08579 16.613 5.64368 16.8434C6.20157 17.0738 6.79946 17.1917 7.40304 17.1904C8.00662 17.189 8.604 17.0685 9.16087 16.8357C9.71774 16.6029 10.2232 16.2624 10.6481 15.8337L10.9726 15.5092C11.8318 14.6497 12.3145 13.4841 12.3145 12.2688C12.3145 11.0535 11.8318 9.88788 10.9726 9.02838L9.67549 7.7313L10.9726 6.43513L10.9717 6.43422ZM17.1298 11.9443L15.8337 10.6481C16.2623 10.2232 16.6028 9.7178 16.8356 9.16093C17.0685 8.60405 17.189 8.00668 17.1903 7.4031C17.1916 6.79952 17.0737 6.20162 16.8433 5.64374C16.613 5.08585 16.2747 4.57895 15.8479 4.15216C15.4211 3.72536 14.9142 3.38707 14.3563 3.1567C13.7984 2.92633 13.2005 2.80842 12.5969 2.80974C11.9934 2.81106 11.396 2.93159 10.8391 3.1644C10.2822 3.39721 9.77683 3.73772 9.35191 4.16638L9.02741 4.49088C8.16816 5.35038 7.68547 6.51596 7.68547 7.7313C7.68547 8.94663 8.16816 10.1122 9.02741 10.9717L10.3245 12.2688L9.02741 13.565L7.73124 12.2688C7.13533 11.6729 6.66262 10.9656 6.34011 10.187C6.0176 9.40845 5.85161 8.574 5.85161 7.7313C5.85161 6.8886 6.0176 6.05414 6.34011 5.2756C6.66262 4.49705 7.13533 3.78965 7.73124 3.1938L8.05574 2.87022C9.25916 1.6668 10.8913 0.990723 12.5932 0.990723C14.2951 0.990723 15.9273 1.6668 17.1307 2.87022C18.3342 4.07364 19.0102 5.70582 19.0102 7.40772C19.0102 9.10961 18.3342 10.7418 17.1307 11.9452L17.1298 11.9443Z"/>
</svg>
  