<svg width="20" height="20" viewBox="0 0 20 20"
  xmlns="http://www.w3.org/2000/svg">
  <path d="M9.99992 0.833252C15.0627 0.833252 19.1666 4.93717 19.1666 9.99992C19.1666 15.0627 15.0627 19.1666 9.99992 19.1666C4.93717 19.1666 0.833252 15.0627 0.833252 9.99992C0.833252 4.93717 4.93717 0.833252 9.99992 0.833252ZM9.99992 2.66659C5.95008 2.66659 2.66659 5.95008 2.66659 9.99992C2.66659 14.0498 5.95008 17.3333 9.99992 17.3333C14.0498 17.3333 17.3333 14.0498 17.3333 9.99992C17.3333 5.95008 14.0498 2.66659 9.99992 2.66659ZM9.99992 3.58325C10.9331 3.58325 11.8195 3.78217 12.6198 4.14058L11.187 5.57242C10.8084 5.47159 10.4106 5.41658 9.99992 5.41658C7.469 5.41658 5.41658 7.469 5.41658 9.99992C5.41658 11.2649 5.92992 12.4108 6.75858 13.2413L5.46242 14.5374L5.31942 14.3898C4.24325 13.2422 3.58325 11.6976 3.58325 9.99992C3.58325 6.45609 6.45609 3.58325 9.99992 3.58325ZM15.8593 7.381C16.2168 8.18033 16.4166 9.06767 16.4166 9.99992C16.4166 11.7718 15.6979 13.376 14.5374 14.5374L13.2413 13.2413C14.0699 12.4108 14.5833 11.2649 14.5833 9.99992C14.5833 9.58925 14.5292 9.19142 14.4274 8.81283L15.8593 7.381ZM13.8884 4.81434L15.1855 6.1105L11.7718 9.526C11.8122 9.67725 11.8333 9.83583 11.8333 9.99992C11.8333 11.0128 11.0128 11.8333 9.99992 11.8333C8.987 11.8333 8.16658 11.0128 8.16658 9.99992C8.16658 8.987 8.987 8.16658 9.99992 8.16658C10.164 8.16658 10.3226 8.18767 10.4738 8.228L13.8893 4.81434H13.8884Z"/>
</svg>
  