<svg width="14" height="14" viewBox="0 0 14 14" fill="currentColor" xmlns="http://www.w3.org/2000/svg">
  <path d="M12.3959 5.33752C11.0484 3.22002 9.07675 2.00085 7.00008 2.00085C5.96175 2.00085 4.95258 2.30419 4.03091 2.87002C3.10925 3.44169 2.28091 4.27585 1.60425 5.33752C1.02091 6.25335 1.02091 7.74085 1.60425 8.65669C2.95175 10.78 4.92341 11.9934 7.00008 11.9934C8.03841 11.9934 9.04758 11.69 9.96925 11.1242C10.8909 10.5525 11.7192 9.71835 12.3959 8.65669C12.9792 7.74669 12.9792 6.25335 12.3959 5.33752ZM7.00008 9.35669C5.69342 9.35669 4.64341 8.30085 4.64341 7.00002C4.64341 5.69919 5.69342 4.64335 7.00008 4.64335C8.30675 4.64335 9.35675 5.69919 9.35675 7.00002C9.35675 8.30085 8.30675 9.35669 7.00008 9.35669Z"
  />
  <path d="M6.9999 5.33167C6.08407 5.33167 5.3374 6.07833 5.3374 7C5.3374 7.91583 6.08407 8.6625 6.9999 8.6625C7.91573 8.6625 8.66823 7.91583 8.66823 7C8.66823 6.08416 7.91573 5.33167 6.9999 5.33167Z" />
</svg>
  