<svg width="18" height="21" viewBox="0 0 18 21"
  xmlns="http://www.w3.org/2000/svg">
  <path d="M14 14.3707C15.657 14.3707 17 15.7158 17 17.3754C17 19.0349 15.657 20.38 14 20.38C12.343 20.38 11 19.0349 11 17.3754C11 15.7158 12.343 14.3707 14 14.3707ZM4 10.3646C6.21 10.3646 8 12.1573 8 14.3707C8 16.5842 6.21 18.3769 4 18.3769C1.79 18.3769 0 16.5842 0 14.3707C0 12.1573 1.79 10.3646 4 10.3646ZM14 16.3738C13.448 16.3738 13 16.8225 13 17.3754C13 17.9282 13.448 18.3769 14 18.3769C14.552 18.3769 15 17.9282 15 17.3754C15 16.8225 14.552 16.3738 14 16.3738ZM4 12.3677C2.895 12.3677 2 13.264 2 14.3707C2 15.4774 2.895 16.3738 4 16.3738C5.105 16.3738 6 15.4774 6 14.3707C6 13.264 5.105 12.3677 4 12.3677ZM12.5 0.349121C15.538 0.349121 18 2.81492 18 5.85761C18 8.90031 15.538 11.3661 12.5 11.3661C9.462 11.3661 7 8.90031 7 5.85761C7 2.81492 9.462 0.349121 12.5 0.349121ZM12.5 2.35221C10.567 2.35221 9 3.92163 9 5.85761C9 7.7936 10.567 9.36302 12.5 9.36302C14.433 9.36302 16 7.7936 16 5.85761C16 3.92163 14.433 2.35221 12.5 2.35221Z" />
</svg>
  