<svg width="20" height="20" viewBox="0 0 20 20" fill="none" xmlns="http://www.w3.org/2000/svg">
  <path d="M9.99992 17.3333C11.9448 17.3333 13.8101 16.5606 15.1854 15.1854C16.5606 13.8101 17.3333 11.9448 17.3333 9.99992C17.3333 8.055 16.5606 6.18974 15.1854 4.81447C13.8101 3.4392 11.9448 2.66659 9.99992 2.66659C8.055 2.66659 6.18974 3.4392 4.81447 4.81447C3.4392 6.18974 2.66659 8.055 2.66659 9.99992C2.66659 11.9448 3.4392 13.8101 4.81447 15.1854C6.18974 16.5606 8.055 17.3333 9.99992 17.3333ZM9.99992 19.1666C4.93717 19.1666 0.833252 15.0627 0.833252 9.99992C0.833252 4.93717 4.93717 0.833252 9.99992 0.833252C15.0627 0.833252 19.1666 4.93717 19.1666 9.99992C19.1666 15.0627 15.0627 19.1666 9.99992 19.1666ZM9.99992 13.6666C10.9724 13.6666 11.905 13.2803 12.5926 12.5926C13.2803 11.905 13.6666 10.9724 13.6666 9.99992C13.6666 9.02746 13.2803 8.09483 12.5926 7.40719C11.905 6.71956 10.9724 6.33325 9.99992 6.33325C9.02746 6.33325 8.09483 6.71956 7.40719 7.40719C6.71956 8.09483 6.33325 9.02746 6.33325 9.99992C6.33325 10.9724 6.71956 11.905 7.40719 12.5926C8.09483 13.2803 9.02746 13.6666 9.99992 13.6666ZM9.99992 15.4999C8.54123 15.4999 7.14228 14.9205 6.11083 13.889C5.07938 12.8576 4.49992 11.4586 4.49992 9.99992C4.49992 8.54123 5.07938 7.14228 6.11083 6.11083C7.14228 5.07938 8.54123 4.49992 9.99992 4.49992C11.4586 4.49992 12.8576 5.07938 13.889 6.11083C14.9205 7.14228 15.4999 8.54123 15.4999 9.99992C15.4999 11.4586 14.9205 12.8576 13.889 13.889C12.8576 14.9205 11.4586 15.4999 9.99992 15.4999ZM9.99992 11.8333C9.51369 11.8333 9.04737 11.6401 8.70356 11.2963C8.35974 10.9525 8.16658 10.4861 8.16658 9.99992C8.16658 9.51369 8.35974 9.04737 8.70356 8.70356C9.04737 8.35974 9.51369 8.16658 9.99992 8.16658C10.4861 8.16658 10.9525 8.35974 11.2963 8.70356C11.6401 9.04737 11.8333 9.51369 11.8333 9.99992C11.8333 10.4861 11.6401 10.9525 11.2963 11.2963C10.9525 11.6401 10.4861 11.8333 9.99992 11.8333Z"/>
</svg>
  