<svg width="18" height="18" viewBox="0 0 18 18" fill="none" xmlns="http://www.w3.org/2000/svg">
  <path d="M16.9414 12.275C16.8081 12.05 16.4331 11.7 15.4998 11.8667C14.9831 11.9583 14.4581 12 13.9331 11.975C11.9914 11.8917 10.2331 11 9.00809 9.625C7.92476 8.41666 7.25809 6.84166 7.24976 5.14166C7.24976 4.19166 7.43309 3.275 7.80809 2.40833C8.17476 1.56666 7.91642 1.125 7.73309 0.941662C7.54142 0.749995 7.09142 0.483329 6.20809 0.849995C2.79976 2.28333 0.691424 5.7 0.941424 9.35833C1.19142 12.8 3.60809 15.7417 6.80809 16.85C7.57476 17.1167 8.38309 17.275 9.21642 17.3083C9.34976 17.3167 9.48309 17.325 9.61642 17.325C12.4081 17.325 15.0248 16.0083 16.6748 13.7667C17.2331 12.9917 17.0831 12.5 16.9414 12.275Z" fill="white" />
</svg>
  