<svg viewBox="0 0 18 18" fill="currentColor" xmlns="http://www.w3.org/2000/svg">
    <path fill-rule="evenodd" clip-rule="evenodd" d="M5.75124 1.50024H12.857C15.4447 1.50024 16.9056 2.94699 16.9132 5.49774V12.5027C16.9132 15.0527 15.4447 16.5002 12.857 16.5002H5.75124C3.16352 16.5002 1.6958 15.0527 1.6958 12.5027V5.49774C1.6958 2.94699 3.16352 1.50024 5.75124 1.50024ZM9.34183 13.3952C9.66976 13.3952 9.94292 13.1552 9.97335 12.8327V5.19024C10.0038 4.95774 9.89042 4.72449 9.68498 4.59774C9.47118 4.47024 9.21248 4.47024 9.00781 4.59774C8.80161 4.72449 8.68824 4.95774 8.71031 5.19024V12.8327C8.74911 13.1552 9.02226 13.3952 9.34183 13.3952ZM12.8426 13.3952C13.1622 13.3952 13.4353 13.1552 13.4741 12.8327V10.3727C13.4962 10.132 13.3828 9.90775 13.1766 9.78025C12.9719 9.65275 12.7132 9.65275 12.5002 9.78025C12.294 9.90775 12.1806 10.132 12.2111 10.3727V12.8327C12.2415 13.1552 12.5147 13.3952 12.8426 13.3952ZM6.42767 12.8327C6.39724 13.1552 6.12409 13.3952 5.79615 13.3952C5.46898 13.3952 5.19506 13.1552 5.16539 12.8327V7.65024C5.14256 7.41699 5.25593 7.18524 5.46213 7.05774C5.6668 6.93024 5.92626 6.93024 6.13169 7.05774C6.33637 7.18524 6.45126 7.41699 6.42767 7.65024V12.8327Z"/>
</svg>
    