<svg width="37" height="35" viewBox="0 0 37 35" xmlns="http://www.w3.org/2000/svg">
  <rect x="0.5" y="0.5" width="36" height="34" rx="3.5" stroke="#0F9D58" />
  <path d="M21.8889 11.1228V12.6807H24.2277C24.6539 12.6807 25 13.0274 25 13.4543V25.9288C25 26.3556 24.6539 26.7023 24.2277 26.7023H11.7723C11.3461 26.7023 11 26.3556 11 25.9288V13.4543C11 13.0274 11.3461 12.6807 11.7723 12.6807H14.1111V11.1228H21.8889ZM14.1111 14.2387H12.5556V25.1443H23.4444V14.2387H21.8889V15.7966H14.1111V14.2387ZM15.6667 22.0284V23.5864H14.1111V22.0284H15.6667ZM15.6667 19.6915V21.2495H14.1111V19.6915H15.6667ZM15.6667 17.3546V18.9125H14.1111V17.3546H15.6667ZM20.3333 12.6807H15.6667V14.2387H20.3333V12.6807Z" />
</svg>
  