<svg width="20" height="18" viewBox="0 0 20 18" fill="none" xmlns="http://www.w3.org/2000/svg">
<path d="M8.75731 8.82752L16.6063 0.978516L18.0203 2.39252L16.6063 3.80752L19.0803 6.28152L17.6663 7.69652L15.1913 5.22152L13.7773 6.63552L15.8983 8.75652L14.4843 10.1715L12.3633 8.04952L10.1713 10.2415C10.8518 11.2755 11.1247 12.5251 10.9372 13.7486C10.7498 14.9722 10.1154 16.0828 9.15658 16.8657C8.1978 17.6485 6.98279 18.0481 5.74648 17.9872C4.51017 17.9262 3.34039 17.409 2.46331 16.5355C1.58433 15.6598 1.06233 14.4886 0.99876 13.2495C0.935187 12.0104 1.33458 10.792 2.11932 9.83093C2.90406 8.8699 4.01808 8.23496 5.24487 8.04951C6.47166 7.86407 7.72358 8.14137 8.75731 8.82752ZM8.12031 15.1205C8.41162 14.845 8.64474 14.5138 8.80589 14.1466C8.96703 13.7795 9.05293 13.3837 9.05851 12.9827C9.06408 12.5818 8.98922 12.1838 8.83835 11.8123C8.68748 11.4408 8.46366 11.1032 8.18012 10.8197C7.89658 10.5362 7.55907 10.3123 7.18755 10.1615C6.81603 10.0106 6.41803 9.93574 6.01708 9.94132C5.61613 9.94689 5.22037 10.0328 4.85319 10.1939C4.486 10.3551 4.15485 10.5882 3.87931 10.8795C3.33283 11.4453 3.03045 12.2031 3.03728 12.9897C3.04412 13.7763 3.35963 14.5287 3.91585 15.085C4.47208 15.6412 5.22451 15.9567 6.0111 15.9635C6.79769 15.9704 7.5555 15.668 8.12131 15.1215L8.12031 15.1205Z" fill="currentColor"/>
</svg>
