<svg width="19" height="18" viewBox="0 0 19 18" xmlns="http://www.w3.org/2000/svg">
  <path d="M16 0C17.657 0 19 1.343 19 3C19 4.657 17.657 6 16 6H13C11.694 6 10.583 5.166 10.171 4H9C7.9 4 7 4.9 7 6V6.171C8.166 6.583 9 7.694 9 9C9 10.306 8.166 11.417 7 11.829V12C7 13.1 7.9 14 9 14H10.17C10.582 12.835 11.694 12 13 12H16C17.657 12 19 13.343 19 15C19 16.657 17.657 18 16 18H13C11.694 18 10.583 17.166 10.171 16H9C6.79 16 5 14.21 5 12H3C1.343 12 0 10.657 0 9C0 7.343 1.343 6 3 6H5C5 3.79 6.79 2 9 2H10.17C10.582 0.835 11.694 0 13 0H16ZM16 14H13C12.448 14 12 14.448 12 15C12 15.552 12.448 16 13 16H16C16.552 16 17 15.552 17 15C17 14.448 16.552 14 16 14ZM6 8H3C2.448 8 2 8.448 2 9C2 9.552 2.448 10 3 10H6C6.552 10 7 9.552 7 9C7 8.448 6.552 8 6 8ZM16 2H13C12.448 2 12 2.448 12 3C12 3.552 12.448 4 13 4H16C16.552 4 17 3.552 17 3C17 2.448 16.552 2 16 2Z" />
</svg>
  