<svg width="20" height="21" viewBox="0 0 20 21" xmlns="http://www.w3.org/2000/svg">
  <path d="M10 20.0317C4.477 20.0317 0 15.6753 0 10.301C0 4.92675 4.477 0.570312 10 0.570312C15.523 0.570312 20 4.92675 20 10.301C20 15.6753 15.523 20.0317 10 20.0317ZM10 18.0856C12.1217 18.0856 14.1566 17.2654 15.6569 15.8055C17.1571 14.3457 18 12.3656 18 10.301C18 8.23643 17.1571 6.25639 15.6569 4.7965C14.1566 3.33661 12.1217 2.51646 10 2.51646C7.87827 2.51646 5.84344 3.33661 4.34315 4.7965C2.84285 6.25639 2 8.23643 2 10.301C2 12.3656 2.84285 14.3457 4.34315 15.8055C5.84344 17.2654 7.87827 18.0856 10 18.0856ZM11 10.301H15V12.2472H9V5.43567H11V10.301Z"/>
</svg>
  