<svg width="20" height="20" viewBox="0 0 20 20" fill="none" xmlns="http://www.w3.org/2000/svg">
  <path d="M9.99984 15.8334C13.2215 15.8334 15.8332 13.2217 15.8332 10C15.8332 6.77836 13.2215 4.16669 9.99984 4.16669C6.77818 4.16669 4.1665 6.77836 4.1665 10C4.1665 13.2217 6.77818 15.8334 9.99984 15.8334Z" fill="#F7DA47" />
  <path d="M10.0002 19.1333C9.54183 19.1333 9.16683 18.7916 9.16683 18.3333V18.2666C9.16683 17.8083 9.54183 17.4333 10.0002 17.4333C10.4585 17.4333 10.8335 17.8083 10.8335 18.2666C10.8335 18.725 10.4585 19.1333 10.0002 19.1333ZM15.9502 16.7833C15.7335 16.7833 15.5252 16.7 15.3585 16.5416L15.2502 16.4333C14.9252 16.1083 14.9252 15.5833 15.2502 15.2583C15.5752 14.9333 16.1002 14.9333 16.4252 15.2583L16.5335 15.3666C16.8585 15.6916 16.8585 16.2166 16.5335 16.5416C16.3752 16.7 16.1668 16.7833 15.9502 16.7833ZM4.05016 16.7833C3.8335 16.7833 3.62516 16.7 3.4585 16.5416C3.1335 16.2166 3.1335 15.6916 3.4585 15.3666L3.56683 15.2583C3.89183 14.9333 4.41683 14.9333 4.74183 15.2583C5.06683 15.5833 5.06683 16.1083 4.74183 16.4333L4.6335 16.5416C4.47516 16.7 4.2585 16.7833 4.05016 16.7833ZM18.3335 10.8333H18.2668C17.8085 10.8333 17.4335 10.4583 17.4335 9.99998C17.4335 9.54165 17.8085 9.16665 18.2668 9.16665C18.7252 9.16665 19.1335 9.54165 19.1335 9.99998C19.1335 10.4583 18.7918 10.8333 18.3335 10.8333ZM1.7335 10.8333H1.66683C1.2085 10.8333 0.833496 10.4583 0.833496 9.99998C0.833496 9.54165 1.2085 9.16665 1.66683 9.16665C2.12516 9.16665 2.5335 9.54165 2.5335 9.99998C2.5335 10.4583 2.19183 10.8333 1.7335 10.8333ZM15.8418 4.99165C15.6252 4.99165 15.4168 4.90831 15.2502 4.74998C14.9252 4.42498 14.9252 3.89998 15.2502 3.57498L15.3585 3.46665C15.6835 3.14165 16.2085 3.14165 16.5335 3.46665C16.8585 3.79165 16.8585 4.31665 16.5335 4.64165L16.4252 4.74998C16.2668 4.90831 16.0585 4.99165 15.8418 4.99165ZM4.1585 4.99165C3.94183 4.99165 3.7335 4.90831 3.56683 4.74998L3.4585 4.63331C3.1335 4.30831 3.1335 3.78331 3.4585 3.45831C3.7835 3.13331 4.3085 3.13331 4.6335 3.45831L4.74183 3.56665C5.06683 3.89165 5.06683 4.41665 4.74183 4.74165C4.5835 4.90831 4.36683 4.99165 4.1585 4.99165ZM10.0002 2.53331C9.54183 2.53331 9.16683 2.19165 9.16683 1.73331V1.66665C9.16683 1.20831 9.54183 0.833313 10.0002 0.833313C10.4585 0.833313 10.8335 1.20831 10.8335 1.66665C10.8335 2.12498 10.4585 2.53331 10.0002 2.53331Z" fill="#F7DA47" />
</svg>
  