<svg width="19" height="4" viewBox="0 0 19 4" xmlns="http://www.w3.org/2000/svg">
  <path d="M0 1.64215C0 2.46658 0.680736 3.14111 1.51275 3.14111C2.34476 3.14111 3.02549 2.46658 3.02549 1.64215C3.02549 0.817722 2.34476 0.143188 1.51275 0.143188C0.680736 0.143188 0 0.817722 0 1.64215ZM15.1275 1.64215C15.1275 2.46658 15.8082 3.14111 16.6402 3.14111C17.4722 3.14111 18.153 2.46658 18.153 1.64215C18.153 0.817722 17.4722 0.143188 16.6402 0.143188C15.8082 0.143188 15.1275 0.817722 15.1275 1.64215ZM7.56373 1.64215C7.56373 2.46658 8.24447 3.14111 9.07648 3.14111C9.90849 3.14111 10.5892 2.46658 10.5892 1.64215C10.5892 0.817722 9.90849 0.143188 9.07648 0.143188C8.24447 0.143188 7.56373 0.817722 7.56373 1.64215Z" fill="currentColor"/>
</svg>
  