<svg width="14" height="14" viewBox="0 0 14 14" fill="currentColor" xmlns="http://www.w3.org/2000/svg">
  <path d="M12.2908 3.05085C11.3517 2.95752 10.4125 2.88752 9.46751 2.83502V2.82919L9.33918 2.07085C9.25168 1.53419 9.12334 0.729187 7.75834 0.729187H6.23001C4.87084 0.729187 4.74251 1.49919 4.64918 2.06502L4.52668 2.81169C3.98418 2.84669 3.44168 2.88169 2.89918 2.93419L1.70918 3.05085C1.46418 3.07419 1.28918 3.29002 1.31251 3.52919C1.33584 3.76835 1.54584 3.94335 1.79084 3.92002L2.98084 3.80335C6.03751 3.50002 9.11751 3.61669 12.2092 3.92585C12.2267 3.92585 12.2383 3.92585 12.2558 3.92585C12.4775 3.92585 12.67 3.75669 12.6933 3.52919C12.7108 3.29002 12.5358 3.07419 12.2908 3.05085Z" />
  <path d="M11.2175 4.74831C11.0775 4.60248 10.885 4.52081 10.6867 4.52081H3.31335C3.11502 4.52081 2.91668 4.60248 2.78252 4.74831C2.64835 4.89415 2.57252 5.09248 2.58418 5.29665L2.94585 11.2816C3.01002 12.1683 3.09168 13.2766 5.12752 13.2766H8.87252C10.9084 13.2766 10.99 12.1741 11.0542 11.2816L11.4159 5.30248C11.4275 5.09248 11.3517 4.89415 11.2175 4.74831ZM7.96835 10.3541H6.02585C5.78668 10.3541 5.58835 10.1558 5.58835 9.91665C5.58835 9.67748 5.78668 9.47915 6.02585 9.47915H7.96835C8.20752 9.47915 8.40585 9.67748 8.40585 9.91665C8.40585 10.1558 8.20752 10.3541 7.96835 10.3541ZM8.45835 8.02081H5.54168C5.30252 8.02081 5.10418 7.82248 5.10418 7.58331C5.10418 7.34415 5.30252 7.14581 5.54168 7.14581H8.45835C8.69752 7.14581 8.89585 7.34415 8.89585 7.58331C8.89585 7.82248 8.69752 8.02081 8.45835 8.02081Z" />
</svg>
  
