<svg width="14" height="14" fill="currentColor" viewBox="0 0 14 14" xmlns="http://www.w3.org/2000/svg">
  <path d="M0.150944 8.44161C-0.0503147 7.49107 -0.0503147 6.50893 0.150944 5.55839C0.927735 5.64936 1.60655 5.39253 1.82769 4.85788C2.04953 4.32252 1.75211 3.6612 1.13768 3.17623C1.66746 2.36188 2.36188 1.66746 3.17623 1.13768C3.6605 1.75141 4.32252 2.04953 4.85788 1.82769C5.39323 1.60585 5.65006 0.927735 5.55839 0.150944C6.50893 -0.0503147 7.49107 -0.0503147 8.44161 0.150944C8.35064 0.927735 8.60747 1.60655 9.14212 1.82769C9.67748 2.04953 10.3388 1.75211 10.8238 1.13768C11.6381 1.66746 12.3325 2.36188 12.8623 3.17623C12.2486 3.6605 11.9505 4.32252 12.1723 4.85788C12.3941 5.39323 13.0723 5.65006 13.8491 5.55839C14.0503 6.50893 14.0503 7.49107 13.8491 8.44161C13.0723 8.35064 12.3934 8.60747 12.1723 9.14212C11.9505 9.67748 12.2479 10.3388 12.8623 10.8238C12.3325 11.6381 11.6381 12.3325 10.8238 12.8623C10.3395 12.2486 9.67748 11.9505 9.14212 12.1723C8.60677 12.3941 8.34994 13.0723 8.44161 13.8491C7.49107 14.0503 6.50893 14.0503 5.55839 13.8491C5.64936 13.0723 5.39253 12.3934 4.85788 12.1723C4.32252 11.9505 3.6612 12.2479 3.17623 12.8623C2.36188 12.3325 1.66746 11.6381 1.13768 10.8238C1.75141 10.3395 2.04953 9.67748 1.82769 9.14212C1.60585 8.60677 0.927735 8.34994 0.150944 8.44161ZM1.40151 7.14696C2.1713 7.3604 2.80603 7.84817 3.12094 8.60677C3.43516 9.36606 3.33089 10.1603 2.93759 10.8546C3.00478 10.9259 3.07406 10.9952 3.14544 11.0624C3.84035 10.6691 4.63394 10.5655 5.39323 10.8791C6.15183 11.194 6.6396 11.8287 6.85304 12.5985C6.95101 12.6013 7.04899 12.6013 7.14696 12.5985C7.3604 11.8287 7.84817 11.194 8.60677 10.8791C9.36606 10.5648 10.1603 10.6691 10.8546 11.0624C10.9259 10.9952 10.9952 10.9259 11.0624 10.8546C10.6691 10.1596 10.5655 9.36606 10.8791 8.60677C11.194 7.84817 11.8287 7.3604 12.5985 7.14696C12.6013 7.04899 12.6013 6.95101 12.5985 6.85304C11.8287 6.6396 11.194 6.15183 10.8791 5.39323C10.5648 4.63394 10.6691 3.83965 11.0624 3.14544C10.995 3.07433 10.9257 3.00503 10.8546 2.93759C10.1596 3.33089 9.36606 3.43446 8.60677 3.12094C7.84817 2.80603 7.3604 2.1713 7.14696 1.40151C7.049 1.39891 6.951 1.39891 6.85304 1.40151C6.6396 2.1713 6.15183 2.80603 5.39323 3.12094C4.63394 3.43516 3.83965 3.33089 3.14544 2.93759C3.07406 3.00478 3.00478 3.07406 2.93759 3.14544C3.33089 3.84035 3.43446 4.63394 3.12094 5.39323C2.80603 6.15183 2.1713 6.6396 1.40151 6.85304C1.39871 6.95101 1.39871 7.04899 1.40151 7.14696ZM7 9.09943C6.44319 9.09943 5.90919 8.87824 5.51547 8.48452C5.12175 8.0908 4.90056 7.5568 4.90056 7C4.90056 6.44319 5.12175 5.90919 5.51547 5.51547C5.90919 5.12175 6.44319 4.90056 7 4.90056C7.5568 4.90056 8.0908 5.12175 8.48452 5.51547C8.87824 5.90919 9.09943 6.44319 9.09943 7C9.09943 7.5568 8.87824 8.0908 8.48452 8.48452C8.0908 8.87824 7.5568 9.09943 7 9.09943ZM7 7.69981C7.1856 7.69981 7.3636 7.62608 7.49484 7.49484C7.62608 7.3636 7.69981 7.1856 7.69981 7C7.69981 6.8144 7.62608 6.6364 7.49484 6.50516C7.3636 6.37392 7.1856 6.30019 7 6.30019C6.8144 6.30019 6.6364 6.37392 6.50516 6.50516C6.37392 6.6364 6.30019 6.8144 6.30019 7C6.30019 7.1856 6.37392 7.3636 6.50516 7.49484C6.6364 7.62608 6.8144 7.69981 7 7.69981Z" />
</svg>
  