<svg width="14" height="14" viewBox="0 0 14 14"  fill="currentColor" xmlns="http://www.w3.org/2000/svg">
  <path d="M6.36364 14C2.849 14 0 10.8661 0 7C0 3.1339 2.849 1.9728e-06 6.36364 1.9728e-06C7.35169 -0.00081455 8.3263 0.251843 9.21005 0.737901C10.0938 1.22396 10.8623 1.93002 11.4545 2.8H9.73C8.99515 2.08723 8.08893 1.62285 7.12009 1.46258C6.15125 1.30231 5.16095 1.45296 4.26802 1.89645C3.37509 2.33994 2.61746 3.05743 2.08604 3.96283C1.55463 4.86823 1.27201 5.92307 1.27209 7.00078C1.27217 8.07848 1.55495 9.13327 2.0865 10.0386C2.61806 10.9439 3.37579 11.6612 4.26879 12.1046C5.16179 12.5479 6.15212 12.6983 7.12093 12.5379C8.08974 12.3774 8.99589 11.9129 9.73064 11.2H11.4552C10.8629 12.0701 10.0943 12.7762 9.2104 13.2623C8.32654 13.7483 7.3518 14.0009 6.36364 14ZM10.8182 9.8V7.7H5.72727V6.3H10.8182V4.2L14 7L10.8182 9.8Z" />
</svg>
  