<svg width="14" height="14" viewBox="0 0 14 14" fill="currentColor" xmlns="http://www.w3.org/2000/svg">
  <path d="M7 14C3.1339 14 0 10.8661 0 7C0 3.1339 3.1339 0 7 0C10.8661 0 14 3.1339 14 7C14 10.8661 10.8661 14 7 14ZM3.5091 11.3792C4.49998 12.1714 5.73138 12.602 7 12.6C8.379 12.6 9.6411 12.1016 10.6169 11.2756C10.161 10.8078 9.61594 10.4362 9.01392 10.1828C8.41191 9.92931 7.76519 9.79916 7.112 9.8C6.43481 9.79922 5.76485 9.9392 5.14463 10.211C4.5244 10.4829 3.96745 10.8807 3.5091 11.3792ZM2.5312 10.374C3.11952 9.74965 3.82947 9.2524 4.6173 8.9129C5.40513 8.5734 6.25414 8.39885 7.112 8.4C7.93916 8.39892 8.75838 8.56125 9.52262 8.87767C10.2869 9.19408 10.9811 9.65834 11.5654 10.2438C12.1647 9.40039 12.5185 8.40744 12.5878 7.37514C12.6571 6.34283 12.439 5.31152 11.9577 4.39562C11.4765 3.47972 10.751 2.71504 9.86158 2.18641C8.97219 1.65779 7.95374 1.38589 6.91922 1.40088C5.8847 1.41587 4.87456 1.71716 4.00086 2.27133C3.12717 2.8255 2.42407 3.61088 1.96958 4.54034C1.5151 5.4698 1.32699 6.507 1.42612 7.53686C1.52526 8.56673 1.90776 9.549 2.5312 10.3747V10.374ZM7 7.7C6.25739 7.7 5.5452 7.405 5.0201 6.8799C4.495 6.3548 4.2 5.64261 4.2 4.9C4.2 4.15739 4.495 3.4452 5.0201 2.9201C5.5452 2.395 6.25739 2.1 7 2.1C7.74261 2.1 8.4548 2.395 8.9799 2.9201C9.505 3.4452 9.8 4.15739 9.8 4.9C9.8 5.64261 9.505 6.3548 8.9799 6.8799C8.4548 7.405 7.74261 7.7 7 7.7ZM7 6.3C7.3713 6.3 7.7274 6.1525 7.98995 5.88995C8.2525 5.6274 8.4 5.2713 8.4 4.9C8.4 4.5287 8.2525 4.1726 7.98995 3.91005C7.7274 3.6475 7.3713 3.5 7 3.5C6.6287 3.5 6.2726 3.6475 6.01005 3.91005C5.7475 4.1726 5.6 4.5287 5.6 4.9C5.6 5.2713 5.7475 5.6274 6.01005 5.88995C6.2726 6.1525 6.6287 6.3 7 6.3Z" />
</svg>
  